<?xml version="1.0" encoding="UTF-8"?>
<svg id="_レイヤー_1" data-name="レイヤー 1" xmlns="http://www.w3.org/2000/svg" viewBox="0 0 96 96">
  <defs>
    <style>
      .cls-1 {
        fill: #d4c8a0;
      }
    </style>
  </defs>
  <path class="cls-1" d="M66.11,36.91c-.8-.08-.82.24-1.37.64l.07.39-.65-.2c-.14.31-.73.69-.85.86-.09.13.13.38-.13.52-.77-.5-.45-.12-.72.06-.11.07-.31.04-.36.09-.07.08.02.36-.08.5-.09.13-.35.1-.46.19-.16.13-.06.41-.22.46-.28.08-1.43.48-1.51.48-.71,0-1.53-.1-2.24-.07-.5.01-1.33.3-1.8-.02-.13-.09-.01-.31-.21-.26.08.24-.39.67-.39.71,0,.08.57.21.39.58.27-.04.04-.55.45-.52.52.12,1.37-.17,1.82-.13.18.02.31.22.39.22s.21-.2.39-.22c.45-.05.86.16.72.65h.38c.07.4-.03.49-.44.4-.13-.03,0-.4-.34-.26l-.13.47c-.58-.22-.75.15-1.24.32-.07-.46-.48-.31-.32.06.18.42.69.02.94.09.13.03.23.23.4.22.31-.02.7-.59,1.13.08s-.27.68-.28.8l.14.44-.52.2c.24.25.13.68.27.89.19.29.5.08.51.34l-3.9.26-.13-.65v.64c-.68.31-4.38.18-4.62.52-.09.13-.06.25-.06.4.84-.05,1.7.02,2.54,0,.53,0,1.01-.22,1.62,0-.06.9-1.93.18-1.95.71.2.11.82.44.98.46.3.03.59-.34.92-.36.17,0,1.08.41.95-.22-.05-.25-.5-.24-.51-.47.54-.25,1.85-.42,2.39-.24.26.09.21.4.21.63.26.04.34-.22.59-.26.3-.05.62.03.58.39h-.52c0,.21-.07.63.26.59s.14-.42.52-.32c.08.47-.03.5-.39.71,0,.15.81.36.89.48.04.06-.08.24-.04.37.15.46.28.5.44,1.21.01.06.55.52.71.88.17.37-.04,1.06.59.51l-.13.65c.75-.23,1.11.37,1.56.58.17.08.47.05.5.08.14.13-.21.81.93.69l.12.47c.99-.83.69.56,1.1.65.34.08.37-.43.19-.65.52-.03.91.13.58.65.18.19.62.53.86.33.21-.16-.01-.95.77-.14.11.27-.5.14-.2.45.21.22.84.17.95.29.06.07.03.25.1.35.08.11.29.12.32.23.06.22-.03.61,0,.89.24,2.73.44,5.52.66,8.3l.25.73c-.04-.29.13-.58.14-.85.06-2.8-.29-5.62-.18-8.41,0-.19-.16-.44-.09-.67.03-.17.99-1.38,1.17-1.56.23-.23-.02.54.39.33.02-.77.27-.35.57-.38l.08-.27c.43-.12.08.35.52.26l.2-.65c.25.26.26.62.71.52-.12-.55.38-.88.26-1.43.5-.14.15.66.26.78.24.07.48-.3.5-.48.03-.28-.44-.37-.37-.69l.63.02c.19.87.52.55.54-.15h-.39s.13-.46.13-.46c.63.06.9,0,1.3-.51l-.26-.32,1.04.13c-.07-.23-.31-.76-.25-.96.05-.15.28-.16.34-.25.09-.13.08-.32.22-.49.38-.45.79-.2.47-1.16l.37-.02.04-.35c.07-.08.52.05.63-.22s-.24-.19-.33-.32c-.11-.15-.06-.35-.06-.53l.78.13c-.15-.5-.19-.65.14-1.07.12-.15.37-.04.17-.42,0-.08.09-.17.16-.19.1-.03,1.05,0,1.28-.01,1.18-.02,2.1-.22,3.25-.26.44-.02,1.98-.22,2.08-.21s.22.22.5.21c.65-.02,1.48-.27,2.13-.36.29-.04.67.29.68-.29-.47.05-.89-.12-1.36-.14-2.59-.08-5.21.17-7.8.14-.29,0-.97.01-1.16,0-.18-.02-.32-.22-.39-.22-.09,0-.22.22-.39.22-.19,0-.36-.28-.58-.27,0-.11-.06-.25.06-.26.49-.05,1-.07,1.49-.13l-.72-.25c-.14-.36-.1-.72.19-.98-.4-.35-.84-.61-.76-1.23.23-.08.33.22.45.22.08,0,.19-.17.29-.19.33-.07.8.09.95-.29-.47.03-.7-.32-1.17-.13v-.39c-.7.31-.69-.03-1.24-.25l-.06.38h-.39c-.05-.06.15-.29.07-.39-.18-.26-.69.08-.59-.39.2.04.33.1.55.1,1.38-.03,2.79-.26,4.19-.36s2.8-.02,4.29-.26c.19-.03.4,0,.45-.26-.51.05-1.12-.07-1.62,0-.17.03-.32.21-.39.21s-.22-.19-.4-.22c-.46-.08-1.92.1-2.47.14-1.43.08-2.96-.06-4.4-.01-.08,0-1.09.26-.79-.12.12-.15.51-.06.2-.33-.15-.11-.32.06-.46.06-.19,0-.28-.19-.4-.21-.16-.03-.32.15-.56.04-.33-.15-.12-.46-.18-.72-.09-.4-.4-.84-.86-.78l-.26.52c-.15-.69-.47-1.53-1.31-1.22-.45-1.67-1.02-.58-1.73-.72-.14-.17-.01-.34-.34-.27l-.2.39c-.37-.39-.89-.35-.97-.99-.02-.2.07-.39.05-.59-.29-2.58-.33-5.16-.58-7.71-.04-.41-.2-.8-.13-1.24-.63.32-.25.82-.25,1.23,0,.82,0,1.63,0,2.46.01,1.94-.01,3.88-.03,5.82-.09.54-.36.28-.48.37-.09.07.14.51-.23.76-.33.22-.39-.08-.5-.09-.15,0-.29.59-1.13.48-.09-.01-.09-.12-.1-.12.03.02.28-.01.39,0,.14-.8-.56-.17-.39,0Z"/>
  <path class="cls-1" d="M38.98,50.26c.01.19.03.27.19.39.41-.48.56-.46.31-1.15l-.69-.03-.86-.25c.74-.04,1.54.06,2.27,0,1.79-.14,3.63-.5,5.45-.46l.59-.45-8.82.12c-.04-1.04-.82-.49-1.31-1.09.59-.39.21-1.04.78-1.49-.84.27-.66-.07-1.04-.55-.09-.12-.24-.14-.36-.32-.38-.55-.1-1.5-1.2-1.08-.02-.17.02-.33.1-.49.13-.26.51-.26.42-.48-.15-.38-.35.02-.45.02-.11,0-.36-.3-.59-.22l.26-.65c-.65.04-.43-.31-.56-.68-.15-.43-.44-.5.04-1.01-.37.2-.78-.11-.95-.1-.33.01-.55.36-.87.36.17-.89-.69-.43-.95-1.08-.09-.24.03-.39,0-.52s-.18-.54-.23-.64c-.09-.2-.38.03-.12-.62l-.52.26c-.1.38.26.14.27.45,0,.12,0,.27-.03.38-.13.39-1.65.27-1.99-.05l-.2.39c-.08.05-.7-.35-.75-.43-.08-.12.03-.32-.1-.35-.68-.16,0,.57-.39.78-.83-.45-.99-1.26-.97-2.14.02-1.41-.46-2.91-.26-4.42l-.46-4.35c-.31-.09-.18.28-.19.45-.19,2.54-.11,6.14.04,8.68.02.35.32,1.11.06,1.36-.13.12-.44.1-.61.23-.17.12-.26.49-.46.58-.24.1-.41-.71-.78-.65l-.07.65-.65-.13.13.52c-.52,0-.57-.48-1.04,0v-.52s-.39,0-.39,0c.15.38.08.65,0,1.04l-.32-.91c-.5.3-.18,1.03-.63,1.39-.23.19-.81.24-1,.36s-.12.86-.52,1.05c-.18.09-.37-.14-.59.04-.04.03-.49.62-.51.67-.33.73-.61,1.46-.92,2.2-.13.31-.58.83-.81,1.11l.23.45c-.31.01-.59.4-.71.66-.06.13.04.31,0,.39-.11.15-.45.04-.32.51.05.06.39-.47.52-.06.14.46-.4.29-.39.65l.39.32c-.39.1-.79-.1-1.12-.12-.91-.04-1.31.23-2.07.37-1.76.32-4.17.3-6,.43-.11,0-.55-.08-.54.16,0,.19.44.19.58.2,2.04.15,4.23-.02,6.24,0,.21,0,1.14-.15,1.24-.07.17.8.16.46.72.72.08.04.74.62.77.66.1.17.04.43.14.64.08.2.46.6.57.86.09.27-.36.1-.25.38.16.41.46-.13.52-.06l.26.59-.39.06c-.07.5.15.91.58.39.3.17.12.6.25.79.15.21.62-.07.46.51l-.44-.13-.33.52c.51.03.59.47,1.04,0-.14.41.2.72.58.78s-.05-.58.59-.39c-.15.84.93,1.79,1.62,1.04.3.22.13.22-.03.45.17.53.74.14.88.25l.27.97h.51c-.01-.32-.08-.79.39-.77-.02.93.56.5.92.84.19.18-.08.45.19.58.14.03.62-.44,1.03-.39.28.03.47.49.85.39l-.13.39h.39s-.13-.33-.13-.33l.26-.06.78,10c.24-.05.24-.25.26-.45.18-1.73-.11-3.63-.11-5.33,0-.33.11-.75.11-1.18,0-.64-.22-1.7.06-2.27.11-.22.44-.24.46-.26.24-.33-.51-.22-.52-.52.48.04.82.05.78-.52.41-.1.2.51.59.65.2.04.33-.29.53-.36.68-.24.23.6.95.5-.15.25-.24,1.4.32,1.17.39-.16.07-.71.06-.98-.01-.24.07-.44.07-.65,0-.08-.15-.18-.15-.25,0-.05.3-.5.34-.53.53-.34.55.6.75.94.08.14,0,.23.29.17v-1.3c.26.11.27.41.52.07-.44-.69.32-1.04.72-1.49l.26.52c.17-.3.6-.57.76-.81s.23-.74.34-.82c.1-.08.33.05.49-.02.24-.11.26-.4.38-.43,1.09-.25,2.84-.18,4-.26,3.27-.2,6.58-.42,9.87-.65,1.09-.08,2.22-.08,3.31-.13-.25-.51-.94-.17-1.34-.17-3.76-.03-7.81.09-11.58.24-.51.02-2.22.29-2.58.17-.29-.1-.22-.5-.21-.76.24-.01.57.03.65-.26-.57.06-.85-.22-.78-.78l.39.13c-.26-.6-.04-1.3.33-1.81.27-.38.26-.21.58,0,.12-.56-.24-.28-.52-.58.33-.73.99-.15,1.3-.39s-.13-.23.64-.32c-.02-.31.06-.56.39-.52l-.15.5c-.06.05-.17,0-.24.02Z"/>
</svg>