<?xml version="1.0" encoding="UTF-8"?>
<svg id="_レイヤー_2" data-name="レイヤー 2" xmlns="http://www.w3.org/2000/svg" viewBox="0 0 109.91 57.2">
  <defs>
    <style>
      .cls-1 {
        fill:#d8cda4;
      }
    </style>
  </defs>
  <g id="_レイヤー_2-2" data-name="レイヤー 2">
    <g>
      <path class="cls-1" d="M78.5,14.18c-1.04-.1-1.06.32-1.78.84l.09.51-.84-.26c-.18.4-.96.89-1.11,1.12-.12.17.17.5-.17.67-1-.65-.59-.16-.93.08-.14.1-.41.05-.47.12-.09.1.02.47-.1.65-.11.17-.46.13-.6.25-.21.17-.08.54-.28.59-.37.1-1.86.63-1.96.63-.92,0-1.99-.12-2.91-.1-.65.02-1.73.39-2.34-.02-.17-.11-.01-.41-.28-.34.1.31-.51.87-.51.93,0,.1.75.27.51.76.36-.06.05-.72.59-.68.67.16,1.78-.23,2.36-.17.24.02.41.29.51.29s.28-.26.51-.29c.59-.06,1.12.2.94.84h.49c.09.52-.03.63-.57.52-.17-.04,0-.52-.44-.34l-.16.61c-.76-.28-.97.2-1.61.42-.08-.59-.63-.4-.42.08.23.54.9.03,1.23.12.17.04.3.3.52.28.4-.03.91-.77,1.47.1s-.35.89-.36,1.04l.19.57-.68.26c.31.33.16.89.35,1.16.25.37.65.11.67.44l-5.07.34-.17-.84-.02.83c-.87.4-5.68.23-5.99.68-.12.17-.08.33-.08.51,1.1-.07,2.21.02,3.3.01.69,0,1.32-.29,2.1,0-.08,1.18-2.51.24-2.53.93.26.14,1.06.58,1.28.6.4.04.76-.44,1.2-.47.22-.01,1.4.54,1.23-.28-.07-.32-.65-.31-.67-.61.7-.32,2.41-.55,3.1-.32.34.11.28.52.28.82.34.05.44-.29.77-.34.39-.06.8.04.75.51h-.68c0,.28-.1.83.34.76s.19-.54.67-.42c.1.61-.04.65-.5.93,0,.19,1.05.46,1.16.62.05.08-.11.31-.05.48.19.6.36.64.58,1.57.02.07.72.68.92,1.14.22.49-.05,1.38.77.67l-.17.84c.97-.29,1.44.49,2.03.76.22.1.61.06.65.1.18.17-.27,1.05,1.21.9l.16.6c1.29-1.08.9.72,1.44.84.44.1.49-.56.25-.84.68-.04,1.18.17.75.84.23.25.81.68,1.12.43.27-.21-.01-1.24,1-.18.14.34-.65.19-.25.59.28.28,1.09.22,1.23.37.07.09.04.33.14.45.11.14.38.15.41.3.07.29-.04.79,0,1.15.32,3.55.57,7.18.86,10.79l.32.95c-.05-.38.17-.76.18-1.1.08-3.64-.38-7.31-.24-10.94,0-.24-.2-.58-.12-.87.03-.22,1.29-1.8,1.52-2.03.31-.3-.02.7.51.42.02-1,.35-.46.74-.49l.11-.35c.55-.15.1.46.67.33l.25-.84c.32.34.34.8.93.67-.15-.72.49-1.14.34-1.86.65-.18.2.85.34,1.01.31.09.63-.39.65-.62.03-.37-.58-.48-.48-.9l.82.02c.25,1.13.67.72.7-.19h-.51s.17-.6.17-.6c.81.07,1.16,0,1.69-.67l-.34-.42,1.35.17c-.09-.3-.41-.99-.32-1.25.06-.2.36-.21.44-.32.12-.17.1-.41.29-.64.5-.59,1.03-.26.61-1.51l.48-.03.05-.45c.09-.1.67.06.82-.28s-.31-.25-.42-.41c-.14-.2-.08-.46-.08-.68l1.01.17c-.19-.65-.25-.84.18-1.39.15-.2.48-.05.22-.55,0-.11.12-.22.21-.24.13-.03,1.37-.01,1.67-.02,1.54-.03,2.72-.28,4.22-.34.57-.02,2.57-.28,2.71-.27s.28.29.65.28c.85-.03,1.93-.36,2.77-.46.37-.05.88.38.88-.38-.61.06-1.16-.16-1.77-.18-3.37-.1-6.77.22-10.15.19-.37,0-1.26.02-1.51,0-.23-.02-.41-.29-.51-.29-.11,0-.28.29-.51.29-.25,0-.47-.36-.76-.34,0-.14-.07-.32.08-.34.64-.06,1.3-.09,1.94-.17l-.94-.33c-.18-.47-.13-.94.24-1.28-.51-.45-1.1-.79-.99-1.6.3-.11.43.29.59.29.11,0,.24-.22.38-.24.43-.09,1.04.11,1.23-.38-.61.04-.91-.42-1.52-.17v-.51c-.9.4-.89-.04-1.61-.33l-.08.5h-.51c-.06-.08.19-.38.1-.51-.24-.33-.9.1-.77-.5.26.05.43.13.71.13,1.79-.04,3.62-.34,5.45-.47,1.89-.14,3.64-.03,5.58-.33.25-.04.52-.01.59-.34-.67.06-1.46-.1-2.11,0-.22.03-.41.28-.51.28s-.29-.25-.52-.28c-.6-.1-2.5.14-3.21.18-1.86.11-3.85-.08-5.73-.02-.1,0-1.41.33-1.02-.16.15-.19.67-.08.26-.42-.2-.14-.41.08-.6.07-.24,0-.37-.25-.53-.28-.21-.04-.42.19-.73.05-.42-.19-.16-.59-.24-.94-.12-.52-.52-1.09-1.11-1.01l-.34.68c-.2-.9-.62-1.99-1.7-1.59-.58-2.17-1.33-.75-2.25-.93-.18-.22-.02-.44-.44-.35l-.26.5c-.49-.5-1.16-.45-1.26-1.28-.03-.26.1-.51.07-.76-.38-3.35-.43-6.71-.75-10.02-.05-.53-.26-1.04-.17-1.61-.82.42-.33,1.06-.33,1.6,0,1.07,0,2.12,0,3.2.02,2.52-.02,5.05-.04,7.56-.12.7-.47.36-.62.48-.11.09.18.66-.29.99-.43.29-.51-.11-.65-.11-.2,0-.38.76-1.47.63-.12-.01-.12-.16-.13-.16.03.03.37-.02.51,0,.18-1.04-.73-.22-.51,0Z"/>
      <path class="cls-1" d="M43.23,31.54c.02.24.04.35.25.5.54-.62.73-.6.41-1.5l-.9-.03-1.12-.32c.97-.06,2,.07,2.95,0,2.33-.18,4.71-.64,7.09-.6l.77-.59-11.46.15c-.05-1.35-1.06-.64-1.7-1.42.77-.51.27-1.35,1.01-1.94-1.09.35-.86-.09-1.35-.72-.12-.15-.31-.19-.47-.41-.49-.72-.14-1.95-1.56-1.4-.03-.23.02-.43.12-.64.17-.34.67-.34.55-.63-.2-.49-.45.03-.59.03-.15,0-.47-.39-.77-.28l.34-.84c-.84.06-.56-.4-.72-.88-.19-.56-.57-.65.05-1.31-.48.27-1.02-.14-1.23-.14-.43.01-.72.47-1.13.47.23-1.15-.89-.56-1.23-1.4-.12-.31.04-.51-.01-.67s-.23-.71-.29-.83c-.12-.26-.5.04-.16-.8l-.67.34c-.13.49.33.18.35.58,0,.15,0,.36-.04.49-.17.51-2.15.35-2.59-.06l-.26.51c-.1.07-.91-.46-.97-.56-.1-.16.04-.42-.12-.46-.89-.21-.01.73-.51,1.01-1.08-.58-1.29-1.64-1.27-2.78.03-1.84-.59-3.78-.34-5.74l-.59-5.66c-.4-.12-.23.37-.25.59-.25,3.31-.14,7.98.06,11.29.03.46.42,1.44.07,1.77-.16.16-.57.13-.8.3-.22.16-.34.64-.6.75-.31.13-.53-.93-1.01-.84l-.09.84-.84-.17.17.67c-.68,0-.75-.63-1.35,0v-.68s-.51,0-.51,0c.2.49.1.85,0,1.35l-.42-1.18c-.66.4-.24,1.34-.82,1.8-.3.24-1.06.31-1.3.47s-.16,1.12-.67,1.36c-.24.11-.48-.18-.76.06-.05.04-.64.81-.66.87-.42.95-.79,1.9-1.2,2.85-.17.41-.75,1.08-1.06,1.44l.3.59c-.41.02-.77.52-.92.86-.08.17.06.41-.01.5-.14.2-.59.05-.42.67.06.07.51-.61.67-.08.19.59-.52.38-.51.84l.51.42c-.5.13-1.02-.13-1.45-.16-1.18-.06-1.7.3-2.7.48-2.29.41-5.42.39-7.81.57-.15.01-.71-.1-.71.21,0,.25.57.25.75.26,2.65.2,5.5-.03,8.11,0,.27,0,1.48-.19,1.61-.1.22,1.04.21.6.94.93.11.05.96.8.99.86.13.22.06.55.18.84.11.26.6.79.74,1.12.12.36-.47.13-.33.49.21.53.6-.17.67-.08l.34.76-.5.08c-.09.65.2,1.19.76.51.39.22.16.78.33,1.02.19.28.8-.09.6.66l-.58-.17-.44.68c.66.03.77.61,1.35,0-.18.53.26.93.76,1.02s-.06-.75.76-.51c-.19,1.09,1.21,2.32,2.11,1.35.38.28.17.29-.04.59.23.69.96.18,1.15.32l.35,1.27.66.02c-.02-.44-.1-1.05.51-1.01-.02,1.21.73.66,1.2,1.1.25.24-.11.58.24.76.18.04.81-.57,1.35-.51.37.04.61.64,1.1.51l-.17.5h.51s-.17-.42-.17-.42l.33-.08,1.02,13c.31-.06.32-.33.34-.58.23-2.24-.15-4.72-.15-6.93,0-.43.14-.98.15-1.53,0-.83-.29-2.21.08-2.95.14-.29.57-.31.59-.34.32-.43-.66-.28-.67-.67.63.05,1.07.07,1.01-.68.54-.13.26.66.77.84.26.05.43-.38.69-.47.89-.31.3.78,1.24.65-.2.32-.31,1.82.42,1.52.51-.21.09-.92.08-1.27-.02-.31.09-.57.1-.85,0-.1-.2-.24-.2-.32,0-.06.39-.65.44-.68.69-.44.71.78.98,1.22.11.18-.01.29.38.22v-1.69c.34.14.36.53.67.09-.58-.89.42-1.35.93-1.94l.34.67c.22-.39.78-.75.99-1.05s.29-.96.44-1.07c.13-.1.43.07.63-.02.32-.14.34-.52.5-.56,1.42-.32,3.69-.24,5.2-.33,4.25-.26,8.56-.55,12.83-.85,1.42-.1,2.89-.1,4.31-.17-.33-.66-1.22-.22-1.74-.23-4.89-.04-10.16.11-15.06.32-.66.03-2.89.38-3.36.22-.38-.13-.28-.65-.27-.99.31-.01.74.04.84-.34-.74.08-1.11-.28-1.01-1.01l.5.17c-.33-.78-.05-1.69.43-2.36.36-.5.33-.27.75,0,.16-.73-.32-.37-.67-.76.44-.95,1.28-.19,1.69-.51s-.16-.3.84-.42c-.03-.4.08-.73.51-.67l-.2.65c-.08.07-.22.01-.31.02Z"/>
    </g>
  </g>
</svg>