<?xml version="1.0" encoding="UTF-8"?>
<svg id="layer1" xmlns="http://www.w3.org/2000/svg" viewBox="0 0 985 1012">
  <defs>
    <style>
      .cls-1 {
        fill: #c3a079;
      }
    </style>
  </defs>
  <path class="cls-1" d="M875.95,557.22c.11-.93-.36-2.16.18-3.02,1.4-2.23,10.38-4.86,10.4-8.86.84.73,5.19-3.14,5.57-3.73,1.66-2.61-.34-5.47,5.56-3.68-1.27-2.81,3.22-8.01,6.44-7.24l-.81-2.4,2.28-.15.58-2.33,3.58.05-1.61-1.19.87-1.94,2.39.36c.2-3.69,2.39-2.72,3.76-3.88,1.21-1.02,4.49-7.5,4.64-9.44l2.03,2.42c2.08-.5.55-2.61,1.65-4.31,1.18-1.81,3.76-1.93,3.94-2.19.41-.6-.73-2.18-.35-3.19.09-.23,2.84-3.61,3.03-3.75,1.48-1.09,3.59-.13,3.71-.28.25-.32,2.26-5.21,3.57-7.21.53-.81-1.01-2.89,3.74-1.59,1.26-1.84-2.53-1.62-1.59-2.4.08-.06.97.18,1.31-.3.41-.58.22-1.39.87-2.14,1.66-1.93,3.48-4.54,5.85-3.21l-.83-2.76c3.3-1.17-.15-3.86,3.64-3.6,1.03-2.26,2.2-5.61,4.07-7.29.91-.82,2.43-.69,2.64-.93.46-.52-.13-2.85.31-4.12.48-1.4,4.45-7.78,4.44-8.24l-1.41-1.99c4.9.38,4.62-6.83,5.77-9.11.49-.98,3.22-4.39,3.8-5.9.36-.92-1.28-2.38,2.49-3.9l-2.03-1.17-.38-1.63c1.75.36,3.59-4.14,3.85-5.47.38-1.94-1.34-2.94-1.38-4.58s1.5-3.25,1.47-4.86c-.02-1.35-1.32-2.59-1.52-4.06-.39-2.85,2.15-7.22-1.62-7.59l1.64-1.24c.28-2.8-2.37-4.66-2.43-4.95-.57-2.64,1.23-4-2.42-5.46l1.6-1.99c-2.93.32-3.33-4.97-4.19-5.5-.62-.38-1.87.07-2.38-.21-.97-.53-1.07-2.18-3.09-1.55l.78-2.31-2.01-.85.44-2.46c-3.14.71-8.29-2.46-8.05-5.63h-1.6s-.79,1.6-.79,1.6c.23-1.89-1.88-1.7-3.27-2.77-1.65-1.27,2.26-3,2.43-2.86.14.12.09,1.55.77,1.99.52.34,1.61-.44,2.44.04,3.78,2.17,9.73,7.26,12.86,9.79,2.79,2.27,7.94,10.32,10,14,2.77,4.96,1.83,8.28,2.03,13.17.15,3.61,2.1,7.63-.73,10.85l2.4,1.61-1.52.34.79,5.66-2.47.44,2.42,2-2.44.41-.08,9.15-3.13,1.32c.48,1.92.55,5.72,0,7.43-.29.88-1.6.82-1.93,1.43-.63,1.16-.44,2.59-1.23,3.67-1.27,1.73-3.59.65-2.54,5.91l-2.32.07c.93,2.54-.34,8.03-3.23,6.39l-.35,4.08-3.68.75,1.27,3.22c-.82,1.59-3.68,1.86-4.28,2.6-.88,1.08-.47,3.85-1.26,5.19-1.98,3.38-7.02,8.87-9.59,11.46-3.4,3.43-4.77,7.57-6.47,9.45-1.3,1.44-5.29,1.4-4.61,5.86l-2.4-1.61c1.3,4.6-3.41,4.01-2.43,8.04l-2.4-.8v3.22c-4.36-1.33-4.34,3.77-6.07,5.61-.52.55-4.25,3.28-5.2,3.27l.58,1.39c-1.95,2.06-3.03,1.97-5.4,3.01l1.6,1.99-4.72.92-.18,3.84c-5.46.48-7.94,6.68-11.23,9.94-1.24,1.22-5.95,3.69-6.96,4.83-.7.79-.91,1.98-1.04,3.01l-3.2-.81.79,4c-1.84-.72-3.92,2.28-4.41,2.3-.42.02-1.35-1.3-2.01-1.48-.2,1.72.66,2.09-1.62,2.81,5.14,2.15-1.9,2.39-2.32,2.91s.05,2.28-.09,3.14c-3.41-1.54-4.17,2.47-6.14,3.9-1.19.86-6.11,2.74-6.56,3.52s.11,2.19-.31,2.86c-.15.24-3.83,1.74-4.97,2.7-2.7,2.28-5.77,8.02-9.37,7.1,1.24,4.77-3.47,2.25-4.11,6.42-3.64-1.53-1.71.15-3.22,1.94-4.7,5.57-14.18,11.79-19.8,16.8-1.35,1.21-3.33,2.46-3.5,2.62-.8.78-.51,2.33-.89,2.66-.5.44-2.06-.17-2.89.29-.92.5-1.47,4.16-2.32,4.73-1.13.76-3.49.36-4.14.91-.33.28-.39,2.08-1.31,3.12-1.75,1.97-4.77,3.45-6.68,4.98-1.37,1.1-.82,3.74-4.25,2.18,1.8,3.84-2.91,4.14-4.86,6.07-.66.66.09,1.38-.49,1.98-2.18,2.29-5.21.86-5.14,4.8l-1.58-.81c1.02,4.28-5.37,6.01-8.01,8.49-.84.79-3.68,4.2-4.92,5.57-1.06,1.18.02,3.59-3.18,2.84l.62,1.44c-2.43,2.44-4.12,5.75-7.02,8.61-2.2,2.17-3.09,4.35-6.47,2.81,2.66,3.49.72,4.95-3.22,4.82,1.63,3.41-.3,1.99-1.16,3.21s-.77,2.36-1.3,3.41-2.53.06-.75,3.02c-3.6-1.32-6.61,5.38-4.02,8.03l-3.11,2.14,1.5,3.49c-4,1.01-1.43,1.39-1.11,2.97.45,2.23-.13,4.94.85,7.34.46,1.12,2.97,1.27,1.97,4.93l2.17.16.15,2.3.8-1.6c2.22-.87,1.48,1.99,2.89,2.36,1.05.28,2.72-1.13,3.58-.43l.78,2.9,3.52-.78,1.31,2.38,1.98-1.68c3.8,2.31,7.19,1.23,11.09,1.89,1.55.26,5.92,2.38,6.2,2.2.12-.08-.35-1.68,1.56-2.06,4.83-.95,10.46,1.06,14.72-.42,5.75-2,9.44-1.41,15.47-2.31,2.26-.34,2.57-3.38,6.29-2.28.82.24,1.8,1.71,2.19,1.44.1-.07-.1-1.09.19-1.27,3.86-2.4,6.7-1.01,9.83-1.11.48-.02.37-1.47,1-1.62,1.49-.37,3.5.19,5.1,0v-3.22s2.02,2.42,2.02,2.42c4-2.75,9.87-1.37,14.31-2.44.63-.15.49-1.36,1.08-1.53,1.63-.47,6.85.23,9.39-.24,2.24-.42,2.14-2.17,2.67-2.26,2.4-.43,3.35,1.63,4.7,1.67.43.01.28-1.29,1.02-1.58,3.84-1.49,6.72-.53,10.32-1.61l.34,1.54c2.04-1.62,3.17-2.18,5.61-.79v-2.42c2.28.43,5.18,1.21,6.86-.78h1.19s1.2,3.19,1.2,3.19l.41-3.2c2.05.17,3.92.16,5.24-1.6l.4,2.39c3.51-.15,6.56-1.74,9.99.03l1.68-2.44.4,2.42c3.39.69,6.86-2.51,9.29-2.5,1.69,0,1.02,1.51,1.2,1.65,1.63,1.23,1.51-1.15,1.74-1.36.37-.33,7.12-.45,6.69,1.41h1.2s.4-1.61.4-1.61c1.26,1.08.65,2.98,2.82,2.42l.4-2.41c1.15,2.13,9.16,1.62,10.06,2.41l-.8,2.4c1.47.43,1.92-1.18,3-1.47,2.73-.72,3.21,1.82,3.62,2.04s.89-.85,2.67,1.27c1.5,1.79,2.25,1.96,3.11,2.96.32.37-.5,2.61,2.07,2.46l-1.45,3.08c2.91-.26-.44,4.5-.69,6.28-.13.92.75,2.47.53,2.67-.18.17-2.5-.41-2.88,1.63l-2.74-1.22c3.76-.07,3.37-12.88,2.2-13.85-1.52-1.26-6.28-1.57-5.44-5.04-.38-.4-1.32,1.35-1.99,1.37-1.74.06-8.6-5.65-11.32-2.17l-.38-1.6-2,1.6-.41-1.6c-1.33.85-1.83,1.43-3.57,1.65-5.27.69-17.74-.28-23.43-.75-.3-.03-.52,2.09-2.48,2.13-1.84.03-3.44-1.49-6.98-1.08-7.23.83-15,2.84-22.25,3.67l-.81-2.4v4.01s-2.41-2.4-2.41-2.4c.7,4.32-2.23,1.6-4.32,1.88-5.75.77-11.54,1.96-17.06,2.89-1.78.3-6.23-.16-7.09.09-.63.18-.52,1.6-.87,1.56-1.85-.19-4.55-2.35-7.68-.79l.8,2.4c-3.12-.27-6.44-1.72-7.26,2.41h-1.18s-.41-2.41-.41-2.41l-2.03,2.46c-3.72.97-3.77-1.61-4.01-1.67-2.23-.58-1.85,1.19-2.24,1.36-.98.44-2.11.05-2.79.45-.55.32-.73,2.08-1.42,2.24-.98.23-1.92-1.65-3.05-1.49-.74.1-1.93,1.49-3.1,1.76-2.45.55-8.73,2.55-10.02,2.7-3,.34-5.5-.81-9.16-.2-5.51.92-5.87.19-10.86.09-3.24-.07-7.03.74-10.42.41l-.45-2.47c-3.84,3.92-5.57.16-6.17.02-5.21-1.2-11.07-1.9-15.97-4.81-2.27-1.35-2.65-3.69-5.21-3.25l.81-2.4-3.22-.41,2.44-2.41c-.21-.6-3.92-1.52-4.09-4.07-.11-1.61,1.29-2.43,1.39-3.32,1.08-9.43.72-9.55,5.18-18.1,1.78-3.41.38-1.16.68-4.15.05-.46,1.13-.49,1.35-.85,1.22-1.98-.46-2.63,4.32-2.09l-.47-3.25,2.9-.77-.82-2.4c2.49.32,4.66-2.48,4.86-4.83l1.58.81v-3.22s2.41.8,2.41.8l-.8-2.4h3.22s0-3.22,0-3.22l2.4.8c-1.93-3.33,3.53-3.82,4-7.72l3.24.48-1.61-2c1.26-2.77,2.81-2.59,4.6-3.87.49-.35.8-2.09,1.43-2.13.46-.03,2.61,2.25,4.43.75.27-1.79-4.2.29-3.2-1.99.41-.93,7.69-7.58,9.66-6.85-1.77-3.94.28-1.6,1.39-2.57.42-.37.26-1.65.7-2.12.84-.88,6.35-5.73,6.95-6,1.07-.48,2.75.47,2.97.21.18-.22-.14-1.23.15-1.68,1.61-2.52.43-1.05.85-2.6.55-2.02,2.35-.53,2.89-.76.15-.06.71-2.14,2.59-1.36l-1.6-2.4c3.1-.87,6.49-.9,5.71-4.74,3.35-.28,4.06-1.06,5.15-4.1,1.27-.9,9.36-5.95,9.68-6.44.57-.86.24-2.19.41-3.2l3.05-.14.94-3.12,3.2.81-1.6-2.4,3.19-.03c-.51-3,1.21-3.74,3.47-5.26,2.47-1.65,1.97-2.34,2.69-2.84,1.05-.74,3.41-.34,4.16-.88.69-.5.52-2.33,1.09-2.9.08-.08,1.07.54,2.3-.46,1.76-1.41,3.78-4.7,5.71-6.44,3.15-2.84,8.59-5.12,10.38-9.33l3.2,1.59c-1.84-3.09-.32-3.23.82-5.6l2.39,2.39c-.95-3.28,7.12-11.13,9.66-10.45Z"/>
  <path class="cls-1" d="M725.52,412.48c-.08-.53-1.11-1.44-.81-2.41l3.26-.38.12-2.72,9.3-6c-.09-3.16,2.26-1.87,4.19-3.4,1.41-1.12,5.01-6.62,5.37-6.88,1.53-1.1,5.63-1.83,6.74-2.34.12-.05-.79-1.51-.09-2.63,1.29-2.07,7.42-2.7,6.52-6.22l2.29.75c.4-3.44,7.26-1.87,5.75-6.36h3.23s.04-3.99.04-3.99c3.89.23,5.95-2.47,8-5.27l-9.64-.41v2.42s-1.97-1.57-1.97-1.57c-3.43,3.02-10.29,1.69-14.28,2.62-3.18.74-6.9,3.65-10.64,3.79l-1.68-2.45c-.51-.6.32-1.3.8-1.64.44-.31,9.16-2.46,10.5-2.7,5.13-.94,14.47-.05,17.29-3.66,2.38,2.36,5.32.02,8.58-.49,1.49-.23,3.71.49,4.54.24,2.53-.75,6.97-5.08,10.19-5.41l-.81-2.39,3.14-.13c-.46-2.96,1.51-1.9,2.45-2.87,4.14-4.28,8.12-9.32,12.37-12.88.94-.79,2.97,1,2.15-3.43l2.32.77c.27-.85.59-1.77,1.25-2.41,7.35-7.12,15.42-14.08,22.13-20.66,2.19-2.15,2.2-5.15,6.48-5.05l-1.6-1.19c.59-1.38,3.58-1.66,3.89-2.16.45-.72-.19-2.27.24-2.94.32-.5,2-.38,2.53-.87,1.25-1.14,2.62-3.37,4.12-4.61,1.03-.86,2.72.81,2.16-3.41l3.92-.08c-.25-4.98,5.99-6.62,5.8-11.11l7.85-4.24-.58-1.84c.46-1.72,2.88-1.33,4.25-1.31,1.8,2.58-1.09,2.36-2.04,3.59-.66.86-.53,2.06-1.34,2.89-2.02,2.07-4.36.04-2.65,4.77l-4.82,2.42-.8-2.41c.8,2.56-1.71,2.47-2.2,3.69-1.49,3.67-1.69,2.37-2.47,3.73-.46.8.15,2.34-.29,2.89-.21.26-2.09.35-3.16,1.27-3.01,2.59-6.15,7.81-9.06,10.65-1.72,1.68-11.83,9.27-12.24,9.95-.47.8.44,1.88.25,2.24-.66,1.27-5.09,3.31-5.28,3.57-1.02,1.42,1.53,2.29-3.02,2.09-1.4,4.28-6.32,5.09-7.66,9.71l-2.34-.75c-.29,3.59-4.08,5.92-6.04,8.85l-1.16-.05c.05-1.65.05-1.77-1.65-1.56.81,4.6-2.46,4.06-4.31,5.59-.75.62-.3,1.79-1.07,2.49-1.84,1.69-5.54,2.27-5.09,5.61l-2.4-.83-1.57,3.63-3.26-.4v2.41c4.14-.44,7.7.59,11.62-1.67l1.24,1.66.34-1.53c3.39,2.55,4.61-.74,5.05-.85,1.97-.48,6.43-.86,7.91.78.56-3,3.47-.33,4.79-.36,2.86-.06,7.68-1.43,9.79-2.03,2.3-.66,4.28,3.17,4.68.13l7.66-.97.4,2.42,2.03-3.21,2.91,2.18,4.69-1.45.82,1.68c2.9-3.48,5.38-.16,7.12-.17.91,0,2.07-.99,3.33-1.06,2.23-.12,4.85,1.93,5.66-1.19,1.47,1.82,2.12,2.51,4.44,1.61l.39,1.61.88-1.69,2.39.81.75-1.58c4.72,2.96,3.6.47,5.61,0,2.43-.57,4.4-.48,6.44.86l.42-1.62,2.4,1.6.4-1.6c1.73,2.79,5.07,2.33,8.02,2.43,7.12.22,15.73,5.46,23.18,6.17,3.45.33,5.18-1.9,6.61,1.84l2.4-1.61c1.46,3.87,6.07,1.6,8.38,5.37l-.7,3.02-1.62.45c-.12-3.28-3.45-2.18-4.32-2.49-4.83-1.71-10.78-4.57-16.26-6.29-1.96-.62-4.76-.58-6.79-.06l.82-1.6c-1.74.98-2.84-.42-4.08-.43-.91-.01-2.08,1.22-3.42,1.02-2.16-.31-4.24-3.58-7.78-.6l.8-2.4c-.55-.46-9.18,2.12-10.06-.81l-.8,1.65c-3.6-2.35-4.2.13-7.21.04-1.96-.06-3.34-1.58-4.88-1.67-1.37-.08-2.77.87-4.03.8-6.96-.39-15.13-1.16-21.71,1.53-1.74-2.18-2.92-5.44-4.47-.82l-1.86-.75-.82,1.6c-1.89,0-3.15-2.55-4.05-2.48-1.81.13-2.77,1.56-4.01,1.62-6.73.33-16.79.23-24.86,1.16-2.18.25-5.26,2.01-8.16,1.97-2.01-.03-5.04-1.54-6.37-1.45-.48.03-.36,1.46-1,1.61-3.57.87-9.07.39-12.3,2.85-1.21.93-1.02,2.36-1.58,3.05-.61.75-1.92.59-2.82,1.36-1.56,1.33-1.02,3.93-4.48,2.39v3.23s-3.21-.81-3.21-.81c.09,1.42.13,2.42-.82,3.61-1.21,1.51-15.11,10.1-14.47,10.86l1.6.8c-2.74,1.1-4.26,1.73-7.23.82l1.59,2.81c-1.4,1.51-4,1.03-4.02,3.61l-1.19-1.6c-1.24,1.55-3.99,2.59-2.82,4.81l-4.02-.79,1.6,3.2c-3.51-.61-4.35,3.42-5.85,4.6-1.09.86-2.63.58-3.55,1.3-2.77,2.14-3.16,5.15-7.49,4.56.37,2.63-4.67,6.2-6.85,8.06-3.02,2.57-6.4,4.72-9.61,7.21-2.59,2.01-5.4,2.58-6.15,6.4-3.12-1.54-5.93,1.51-7.19,4.42l-14.43,9.29-.74-3.9c2.42-.46,5.07-4.24,6.93-4.78,1.29-.38,3.7.14,4.18-.29.21-.19-.09-1.43.33-1.99,1.28-1.71,8.88-7.72,10.77-8.94,1.45-.93,6.43-2.36,6.66-2.63,1.53-1.8-2-1.2-1.6-2.39,2.9.79,2.47-1.98,4.04-2.82,2.97-1.6,2.05-1.16,4.36-2.83.89-.64,6.21-3.61,6.48-3.96,1.15-1.49-2.79-1.6,2.82-.85Z"/>
  <path class="cls-1" d="M648.3,71.53c-.05-.54-1.07-1.49-.8-2.39,3.73-1.02,7.18-2.57,10.62-4.3,5.51-2.78,12.16-7.11,19.14-8.19l17.34-7.63.4,1.54,1.56.06c.43-4.22,3.38-2.89,4.32-3.29.62-.27.51-1.12.73-1.24.46-.24,1.69,1.23,1.42-1.07h1.6s.8,1.59.8,1.59l.48-2.39c3.35.4,8-3.32,11.4-4.64,12.51-4.86,26.97-8.28,38.2-12.42l24.67-7.8.07,1.52,1.31-1.63c3.19,1.39,4.58-1.51,4.86-1.57,1.64-.37,3.66.31,5.46-.08,2.21-.48,9.83-4.11,9.28-.75h.78c-.55-1.66,6.09-3.58,7.2-3.66,1.18-.09,1.74,1.22,2.85,1.29.43.03.24-1.38,1.55-1.81.59-.19,11.44-1.49,12.1-1.41,1.29.16,2.17,1.59,3.12,1.46.86-.12,3.83-2.9,4.98-3.1.59-.1.22,1.26.92,1.62,1.39.73,3.23.58,4.29,2-1.82.97-5.16-.46-6.75-.38-.49.03-.41,1.3-1.58,1.72-6.48,2.35-13.38.25-20.63,2.56-6.9,2.2-14.4,2.04-21.19,3.19-1.44.24-5.04,2.61-7.16,3.25-1.44.43-2.8-.31-3.37-.14-1.13.35-.92,2.11-1.77,2.25-2.6.43-5.85.92-8.6,1.33-1.64.25-5.97-.75-6.18-.52-.22.25.55,1.81-.54,2.44-2.56,1.49-7,1.77-9.93,1.58v3.23c-2.08.59-4.98-1.21-6.7-.84-.56.12-.54,1.31-.76,1.43-.4.22-2.03.45-4.08,1.52s-4.29,1.15-5.76,3.51c-1.14-1.15.86-3.85-2-3.21.39,4.61-4.2,3.14-6.71,4.18-1.2.5-1.12,2.07-1.9,2.28-1.95.53-3.98-.71-5.87-.83l.8,2.4-4.82-.8-.84,3.23c-3.17-1.75-3.37.61-4.79,1.15-1.56.59-3.69.9-5.9,2.05-.53.27-.47,1.63-1.04,1.68-1.08.08-2.87-1.2-3.41-.78-.35.28-.37,1.62-.88,1.95-.59.37-1.49-.43-1.95-.36-.74.11-.07,2.67-2.92.74l-.48,2.51c-6.87-.61-11.27,5.43-18.02,4.75l2.4,1.59-12.14,2.8.08,2.03c-4.68-1.59-5.15,2.28-7.01,3.05-2.7,1.12-5.54,1.8-8.28,1.78.1,1.05-.06,2.16,0,3.21-4.35-1.9-3.93,1.7-4.97,2.32-.65.39-1.98-.48-3.11-.22-1.41.33-2.1,2.11-3.05,2.64-4.1,2.27-8.36,4.69-12.86,5.91.49,2.8-2.89,3.4-3.38,1.05-.27-1.29.51-1.45-1.58-1.24.44,4.12.29,5.1-3.78,6.17-.78.2-1.79-.69-2.49-.41-.28.11-2.9,3.43-4.24,4.26-.86.53-6.42,2.26-7.76,3.08-1.62.99-2.31,4.74-6.59,2.23l-2.96,4.7c-2.17.86-1.73-1.23-2.51-1.52-.65-.24-1.41.1-1.84-.02.05.54,1.06,1.06.43,2.37-1.64,3.45-6.96,1.95-6.07,5.67l-2.41-.8.39,1.61c-3.1-1.15-6.63,3.82-9.62,4.92-2.39.88-3.41-1.37-4.85,2.31l-2-1.61v3.22s-1.65-.43-1.65-.43l-.77,2.84-3.2-.82-.77,2.89-4.06-.47c1.13,3.36-5.89,4.62-7.28,6.01-.9.91-.64,2.64-.81,2.82-.08.09-1.29-.84-2.33-.4-2.52,1.07-10.6,6.13-12.55,7.62-.75.57-.93,2.03-1.72,2.51-2.13,1.29-5.09-.57-4.28,3.16l-3.21-.8c.98,2.58-.85,3.34-3.22,2.41l.69,1.48c-4.75,2.54-9.68,7.41-15.17,7.37,1.76,3.41-3.06,5.66-6.42,4.84.73,3.9-5.43,7.14-8.87,5.61l.79,3.21-2.4-.81-.06,2.35c-2.78-1.06-4.11,3.36-6.16,4.88-2.63,1.95-10.07,3.66-9.91,7.25l-1.42-.62c-1.48,3.31-5.33,4.48-7.85,6.23-.77.54-.93,2.05-1.31,2.27-1.04.59-2.85-.25-3.75.28-.68.41-1.41,6.24-5.76,4.71,2.05,3.47-2.96,4.12-5.03,5.61-2.53,1.82-4.1,6.05-8.64,4.85l.72,3.1-3.54,2.39-2-1.48c1.48,6.49-6.63,5.81-9.69,9.3-1.02,1.17-.07,2.19-.42,2.79-.65,1.11-4.47,3.64-5.98,2.39l.8,3.21c-2.84.06-4.67,3.32-7.63,4.89-1.03.55-1.94-.13-1.98-.04-.26.52.17,1.96-.48,3.17-.34.63-2.61,1.35-2.76,2.86l-2.03-1.22c-1.82,1.24,0,2.95-1.43,4.58-.81.92-6.77,4.15-7.02,4.65l1.6,1.19c-2.4,1.1-8,3.57-9.72,5.17-2.27,2.11-5.67,8.07-7.42,9.87-1.07,1.1-5.44,2-4.58,5.07l-1.19-1.6c-1.58.7-1.6,2.99-2.29,3.74-1.03,1.13-3.21,1.86-4.33,2.92-1.55,1.47-.74,4.28-5.87,3.81l-.2,4.6c-2.05-.34-3.1,2.6-3.48,2.67-.64.11-1.42-.72-1.94-.86-.97,2.34-2.08,4.68-2.42,7.24l-2.4-.81c-.2,3.57-4.87,6.58-8.01,8.14l.71,2.24c-2.2,1.16-6.09,3.01-5.59,5.7l-1.59-.81-.05,2.35-3.17.08,1.6,1.59-2.41.49.67,1.54c-.41,1.49-1.97.16-2.32.82-1.46,2.76-.71,6.67-6.39,6.81.14-1.89.17-4.41,2.18-5l-.58-1.42,3.22.8c-.77-5.86.52-3.79,2.15-5.03,1.5-1.15,1.46-4.99,5.08-4.66l-.68-1.45c2.66-.7,3.37-2.3,3.11-4.95l1.59.39.4,2.02c1.92-1.64,1.17-4.62,2.45-6.48.45-.65,1.51-.08,1.77-.3,2.39-2.01.98-4.43,4.96-3.74l.1-4.75c4.92,2.53,1.86-1.25,3.63-1.61.79-.11,1.45.66,1.99.81.77-1.86.65-1.51,1.51-3.08,1.46-2.64,3.22-6.68,6.52-4.96-1.28-4.66,2.35-3.73,3.31-7.21l2.32.78.12-3.15c3.46.61,3.74-4.21,4.85-5.54.13-.15,1.02.35,1.45.11,1.57-.87,1.66-2.53,4.04-1.08-1.7-3.55,1.53-3.12,2.28-4.16.33-.46-.59-.01,1.8-2.61,2.1-2.28,2.02-4.2,6.38-3.68l-.81-2.4c3.76-.26,6.17-5.12,8.52-7.22,1.23-1.1,7.92-5.36,8.26-5.76.51-.59-.25-2.38.24-2.99.26-.33,1.65-.17,2.2-.59,1.57-1.21,2.63-3.07,4.94-2.76l-.76-2.33c2.69-.14,4.66-4,6.03-4.81s2.88-.56,4.11-1.19c.57-.29,8.82-8.36,9.17-8.89.76-1.17.75-2.33.77-3.65,5.02,1.39,4.62-2.8,8.79-2.48l.5-3.27,4.35.08-1.59-2c1.69-1.65,2.64.81,2.53-2.64,4.72.11,7.85-8.3,12.74-6.61-2.04-4.23,4.58-4.89,6.42-6.85.88-.93.84-2.71,1.62-3.23.89-.59,2.62-.06,3.12-.53.32-.31-.08-1.65.26-2.04.99-1.11,4.16-.26,4.52-.44,1.45-.77,2.55-4.24,2.76-4.41,1.15-.98,2.37,1.24,2.24-3.39l1.19,1.63,1.88-.17c1.04-4.66,3.45-3.37,6.05-4.82,2.85-1.59,7.3-6.57,11.97-9.56,1.73-1.11,6.36-2.86,7.84-4.39.88-.91.85-2.72,1.6-3.23,1.06-.71,3.11-.05,4.11-.74,1.5-1.03-.98-4.55,5.57-2.05v-3.23s3.22,0,3.22,0l-.8-2.4c1.09.57,4.24-.23,5.09-.79.95-.64.16-1.97,1.06-2.46,1.07-.59,3.1-.07,3.9-.36,3.9-1.44,4.96-4.52,8.66-6.86.5-.32.58-1.37.74-1.45,1.23-.59,2.84.93,3.07.67.15-.18-.27-1.57.17-2.2.34-.49,8.8-5.46,10.22-6.36,3.98-2.52,11.05-4.69,14.01-7.5.74-.71.4-1.87.73-2.21.57-.58,8.99-4.38,10.27-2.64l-.8-3.21,6.43-.82-.8-2.4c1.3-.35,2.21.53,3.22.8-.07-.77-.06-1.59.04-2.36,5.05-.73,10.22-3.9,14.66-6.5.46-.27.56-.97.68-1.47l2.31.69v-2.41c1.96-.29,4.14,1.65,4.83-.8l-1.61-.8c2.64.25,4.33-.44,4.9-3.16l3.9.68c.51-5.15,6.85-6.16,11.33-6.75-.06-2.34,4.36-4.63,6.85-5.22,1.02-.24,3.27.5,5.18-.86l-.76-1.54c2.1.07,3.72-1.77,5.56-2.13,1.44-.28,2.32.46,3.25.47Z"/>
  <path class="cls-1" d="M960.42,76.34c5.52-.12,2.49,5.51,3.38,8.27,3.03,9.36.78,10.96.94,19.48.02.96,3.32,4.59-1.1,5.25.11,1.97,2.33.66,2.4.79.23.43-1.03,8.6-2.41,9.27l1.61,1.58c-3.99,2.1.39,6.27-4.82,6.05l3.21,1.19c-.8.66-1.27,1.46-1.58,2.44-1.11,3.43-1.84,10.58-3.57,12.97-.85,1.17-2.05-.94.36,3.09-2.98.96-1.55,3.76-2.28,5.79-1.5,4.17-4.74,8.32-4.26,13.07l-2.33.04.73,3.12-3.88,1.78c2.45,3.73-1.15,4.93-1.62,6.17-.6,1.58-.82,4.96-1.73,6.75-1.09,2.15-5.86,6.49-6.74,7.95-1.41,2.34.39,7.31-3.66,6.4l.55,2.04c-3.47,1.02-.94,4.55-2.36,5.85-.35.32-1.6-.04-1.99.31-.42.38-.99,3.54-1.83,4.85-1.21,1.9-6.18,5.04-7.31,6.84-.58.92-.06,2.52-.8,3.7-1.57,2.48-4.18,1.51-3.25,6.11l-2.24.1-.18,3.1c-3.55-.47-2.87,3.5-4.08,5.97-.49,1-1.83,1.12-2.06,1.53-.49.87.12,2.37-.32,2.87-.28.32-5.64,3.93-6.36,4.72-2.06,2.26-2.82,6.68-6.39,6.69l.81,2.4-2.4-.8c.44,2.14-2.35,6.34-3.99,7.7-1.05.87-2.9,1.03-3.33,1.66-.77,1.12-.39,3.69-.9,4.2-.54.54-3.59-.68-2.31,3.27l-2.22.19-.53,2.29c-1.21-1.28-3.68-1.76-3.24-4.03,1.62-2.32,2.65-2.25,5.24-1.59.04-1.4-.08-4.09.73-5.16.58-.77,2.1-.24,2.37-.56.15-.17.64-2.01,1.74-3.69.52-.79.68-2.49.84-2.62.27-.22,7.17,1.38,3.18-2.85.71-1.29,2.55-.81,3.29-1.72,1.32-1.62-.68-3.56,3.13-1.9-1.22-2.35,2.89-4.61,4.82-5.63l-1.6-1.99c2-1.87,5.31-3.15,4.37-6.02l5.93-5.76-.65-2.29,2.4,1.6-1.6-2.81,2.46-4.43,2.4.47,3.18-8.52,2.01.7,1.05-1.07c-1.29-2.98.19-4.24,2.56-5.64l-1.6-2,4.74-.89c-.88-4.75,2.52-6.51,5.71-9.17l-1.6-1.19c2.45.04,2.9-5.55,4.22-7.03.78-.87,2.8-.79,2.99-1.06.33-.46-.71-2.7-.46-4.06.27-1.45,1.77-1.5,2.07-2.11,1.51-3.04,3.35-7.35,3.23-10.69h2.84c-.03-2.21.43-4.01,1.06-6.12.35-1.16,1.49-1.05,1.65-1.64.21-.74-.54-3.28.04-4.59l2.46-.51c-.99-2.54.01-6.88,3.21-7.24l-1.6-1.99c3.3-1.87,1.65-3.75,2.04-5.64.86-4.2,2.4-6.84,4.31-10.58l-1.44-2.17,1.53-4.53,2.4.81-2.41-2.42,1.67-4.38-1.67-.84c3.49-1.07,2.09-4.88,1.59-7.99l1.54-.79c-1.8-5.02-.22-10.67,0-15.29.05-1.11-.96-2.4-.73-3.67l2.42-.41-2.85-1.91-.45-4.87-2.35-.04c2.95-4.9-1.81-12.35-3.79-17.29l1.77-1.8c2.63-.27,6.84,10.38,3.64,12.66Z"/>
  <path class="cls-1" d="M952.38,734.93h-2.42s1.61,2.41,1.61,2.41l-3.91.11c-.84,1.01-.55,4.06-1.1,4.59-.32.31-1.55-.05-1.99.32-.35.3-1.04,2.93-1.96,4.13-1.18,1.54-3.58,1.74-3.12,4.52l-1.19-1.61-1.95.87c.24.73.73,1.5.35,2.31-.82,1.78-12.42,13.47-14.19,14.87-.57.45-1.57.39-2.29.51l.77,1.54-2.25.18c-1.11,2.82-4.69,6.26-7.07,8.65-.93.93-7.31,5.69-7.66,6.17-3.75,5.27-9.23,10.4-13.13,16.42-.84,1.29-1.92,5.34-2.13,5.56-.08.09-.99-.71-1.36-.53-.1.05-1.72,1.28-1.78,1.37-1.34,1.99,1.93,1.11,1.58,2.38-2.01-.31-1.3,1-1.64,1.85-.44,1.1-1.29-.55-1.56-.23-1.47,1.76,2.31,1.27,1.6,2.81-4.63,2.88.27,7.36.01,11.68l4.82-.8-2.41,3.2c.28.23,4.41-1.84,5.93-1.58.9.16.98,2.31,1.7,2.37.15.01,1.52-1.23,2.62-1.4,1.77-.27,5.17,1.14,5.05-1.79l2.05,2.34c1.86-1.23,5.13-.63,6.38-.93.46-.11.25-1.21,1.59-1.51,2.19-.48,4.78-.78,6.86.1v-2.43c2.93,1.6,2.37-.48,2.57-.52,2.64-.64,5.37-.42,7.5-3.49l.78,1.61c1.34-1.98,3.41-.61,4.65-.98,1.13-.33,1.9-1.84,3.4-2.32,1.65-.54,4.16-.2,5.49-.87,1.23-.62,1.24-2.27,1.83-2.3.67-.04,1.89.93,3.13.85,1.69-.1,2.53-3.02,3.64-.04-3.33,2.44-6.25,2.64-10.39,2.53.56,4.29-4.3,2.71-5.96,3.19-.57.16-.51,1.24-1.15,1.47-1.19.42-4.36.46-4.88,1.06-.45.51.05,1.95-.14,2.23-.05.08-1.14-.57-1.82-.49-5.47.64-10.53,2.24-16.11,3.03-1.76.25-3.1,2.87-5.71,2.33-.89-.18.06-2.01-1.28-1.66l.8,3.2c-.24.2-4.26-.84-4.82-1.24-1.38-.99-.77-4.65-3.63.43-1.43-2.23-3.43-.44-5.57-.79-1.93-.31-4.76-2.47-7.75-1.98l.05-2.84h-3.23c1.05-2.61-2.04-8.07-1.55-9.91.19-.73,4.27-3.66,1.56-6.97h3.23c-1.49-4.59,3.23-3.74,1.59-7.24h2.43c-1.97-3.59-.02-2.68.76-3.83,2.76-4.05,6.85-7.46,9.99-11.64.78-1.04,1.1-3.28,1.55-3.65.93-.77,3.02,1.08,2.19-3.39l4.01.8-1.6-3.2c2.73.48,4.03-2.94,5.94-4.52,3.39-2.79,5.39-4.41,8.2-7.04,2.53-2.35,3.82-5.66,6.7-7.07l-.74-2.28c2.41-1.14,2.68.56,4.83.79-2.39-3.3,2.01-4.65,4.03-7.05.95-1.12,4.96-7.22,5.34-7.5.77-.56,2.63-.32,3.32-.9.83-.71.52-2.88,1.18-3.66.55-.66,2.21-.5,2.85-1.16,1.17-1.2.75-6.41,4.22-4.26,1.08.67.82,1.78.79,2.82Z"/>
  <path class="cls-1" d="M35.31,952.04c-.83.18-1.56.46-2.33.76-.37-2.01-2.49-3.73-2.95-5.57-.3-1.2.56-2.23.3-3.05-.32-1.01-4.74-1.37-2.25-5l-2.46-.52c-.74-1.65.29-4.46.07-5.35s-1.76-.71-2.26-1.84.63-8.64.46-9.06c-.04-.1-1.27-.06-1.7-1.12-1.58-3.87.16-10.25-.11-13.07-.1-1.06-1.82-2.48-1.75-4.04.06-1.33,2.02-2.53,1.94-5.01-.13-4.1-2.1-3.22-2.23-3.43-.22-.35,4.03-4.55.74-7.59l1.61-.77c-2.51-4.17.99-3.57,1.67-4.89l-1.63-.93c.96-2.27-1.46-5.07,2.44-4.3l-2.41-1.19c1.84-1.11,4.95-7.38,1.61-6.85l1.41-.9c.15-.99-.6-5.17-.46-5.41.15-.25,1.76-.42,2.48-1.93,1.09-2.28-.42-7.49,2.98-8.24l-2.4-2.81,3.22-.02c-2.28-3.2.7-4.35,1.26-6.4,1.35-4.85,5.63-11.49,6.65-15.91.6-2.63-2.33-8.23,4.16-7.44l-1.56-3.17c2.83.07,1.68-3.2,2.6-4.65,1.14-1.79,1.48-2.9,2.1-3.87,1.6-2.5,4.18-.54,2.58-5.08l3.94-1.73-1.6-2,3.22-3.61-2.42-.8,5.62-1.63-1.57-1.95c.73-2.77,5.21-6.75,5.99-8.51,1.52-3.43,2.95-7.07,5.27-10.61,1.43-2.17,5.09-2.5,3.17-5.45l4.02-.83c1.01-2.1-1.53-2.55-1.52-2.73.06-.87,1.17-2.35.73-3.68l2.4.82c.91-3.01,1.07-5.76,4.84-4.84l-.81-2.4,3.23-.82c-1.54-3.85-.32-2.45.76-3.82s3.13-5.38,3.64-5.84c1.52-1.35,4.02.13,4.39-3.14l-1.55-.85c3.39-.49,3.35-3.96,4.23-5.42.31-.51,1.65-.7,2.19-1.4,1.49-1.94,2.25-4.87,4.83-5.26l-1.6-1.19c.9-2.22,4.49-2.67,4.71-2.93,1.01-1.19-1.56-3.2,2.12-3.03l1.22-4.1,2.41.81-.82-1.58,3.22-1.23-1.6-1.19c.65.05,4.53-1.54,4.73-1.7.12-.09-.72-1.96.27-2.94.8-.79,3.07-.82,3.85-2.21l-1.6-1.19h3.22c-1.48-3.2,4.28-7.87,7.24-8.06l-.82-2.4c4.41-1.3,9.41,3.67,1.62,2.41,1.12,3.82.26,2.72-1.55,4.52-1.45,1.44-.1,2.43-3.28,1.1-.19,6.19-9.5,10.22-11.71,13.71-.6.94.77.4-1.46,3.24-1.84,2.35-4.1,4.37-5.46,7.05l-1.48-.69-.79,3.68-3.24-.45,1.6,1.19c-1.06.88-1.43,2.3-2.49,3.18-1.17.96-2.96-.49-1.77,1.88l-1.38.64.82,1.94-2.51.47.1,2.74h-3.23s.8,3.22.8,3.22l-2-.08c-.94,1.79-2.06,5.54-3.58,6.78-1.88,1.54-3.23-1.05-1.74,3.62-4.09,2.8-6.09,7.68-9.01,11.59-.85,1.15-1.93,2.38-2.18,3.81l-1.59-1.6c1.03,3.69-2.49,3.73-3.44,5.84-.39.87.24,2.07-.2,2.95-1.45,2.88-4.74,1.1-2.8,5.67-.92-.83-4.54,2.29-4.66,2.54-.14.28.71,1.52.24,3.04-.59,1.95-2.63,2.4-2.69,2.58-.21.66,1.13,1.95.55,2.96-.43.73-3.99,4.51-5.46,4.23,1.85,4.31-1.63,5.24-2.22,6.59s-5.38,12.28-5.48,13.04c-.26,2,2.01,2.97-1.81,2.96-.5,3.68-2.24,6.58-4.19,9.72-2.35,3.79-4.84,9.73-6.8,14.24-.42.98.1,5.73-.61,7.56-.47,1.2-2.1,1.02-2.3,1.88-.21.91.56,3.19-.03,5.37-1.68,6.27-3.03,12.93-4.78,19.26-.3,1.08-2.43-.69-.34,3.83l-2.87,2.36,2.42,2.79-2.41-.39v3.21c5.94.15.35,2.09.08,2.5-.23.35.83,6.92.6,8.39-.12.77-1.55-.04-1.5.77l2.42,2-2.41.8,3.18,2.02-1.58,2,1.6.8-1.66.45c1.18,3.05,2.52,5.56.82,8.77l1.58.78c-2.27,4.2,1.14,8.65,2.05,12.44.36,1.51-1.68,3.67,1.23,3.31l-1.6,1.99c3.9,1.04,2.02,4.85,2.59,5.83.24.42,3.39,2.41,3.59,2.86.5,1.13.94,4.72,1.06,6.2.44-.1,1.31-1,1.55-.79.26,1.87,1.37,2.92,3.22,3.27-1.7,2.97.25,1.95.85,2.92,2.9,4.69,5.81,6.17,9.75,9.41,2.18,1.8.97,4.02,6.35,2.89-1.42,2.23,1.21,2.09,2.01,3.24s.21,2.25.4,3.19c2.35-.11,11.87,3.1,13.48,4.5s.87,2.61,1,2.73c.25.25,5.53-.43,6.76.03l.48,2.38,1.95-1.56c2.38,2.67,6.78,1.61,9.57,2.37.91.25,0,2.37,2.15,1.6l.79-1.59c-.3,2.8,9.4,3.04,10.41,4.07l.06,3.16c-1.05-.4-1.83-1.17-2.99-1.42-7.75-1.67-16.54-1.85-23.16-5.88-3.28-1.99-3.28-1.11-6.3-1.5-.56-.07-.51-1.4-1.53-1.88-2.95-1.39-7.85-.57-6.65-3.03-2.5-.74-2.66-2.64-5.23-1.91-.79-.49-.64-1.33-.79-2.08-.77.04-1.9.83-2.28.67-.08-.03-.2-1.07-.74-1.44-5.86-4-13.06-8.95-17.05-14.1-1.26-1.63-3.95-3.17-4.55-5.22-.56-1.9.56-3.04.49-4.03Z"/>
  <path class="cls-1" d="M279.86,570.08c.1-.78-.07-1.62,0-2.41l3.21.79c-1.87-4.62,5.48-4.63,7.54-6.37.81-.69.22-2.79,2.53-3.27l1.19,1.61c.04-2.95,2.89-2.9,4.23-4,.85-.69,5.22-5.34,5.58-5.5,1.25-.58,2.86.92,3.06.66v-3.22c2.77,1.79,3.12-1.07,4.82-1.89,2.03-.99,5.86-3.64,6.22-3.72,6.04-1.3,1.86-1.01,3.92-2.5,2.72-1.96,8.79-2.9,11.19-7.16l1.19,2.4c-1.23-2.3,5.22-6.18,5.63-5.62.69,5.56-1.27,4.27-4.18,5.73-1.04.52-6.57,3.05-6.89,3.31-.35.28-1.92,4.35-3.18,4.61-3.81.78-3.78-1.44-5.85,3.71l-4.02-.46c1.12,3.75-4.87,1.85-3.22,5.62l-4.03-.43-.81,2.04,2.42.8-4.35-.8c-2.32,2.12-5.97,3.92-9.2,5.77l.63,1.4c-4.12-.13-8.7,5.25-10.4,6.11-1.09.55-2.75.18-3.2.44-.14.08,1.13,1.87-.83,2.8-1.07.67-2.42-.49-3.21-.43-.51,4.15-1.2,2.1-3.14,3.69-1.77,1.46-1.01,2.52-4.52,2.73l.43,2.42-4.72.91-.12,3.91c-3.36-2.33-4.7,1.95-7.29,2.81-1.09.37-2.24-.47-2.32-.39-.13.13-.06,1.87-.79,2.84-1.5,1.99-5.64,2.29-6.29,2.98-1.45,1.54.03,4.15-5.83,3.01.65,3.21-2.44,5.82-5.54,5.77l-.11,2.27c-2.59-.96-3.29-.22-4.12,2.34l-3.11-.73-1.31,3.87c-2.71-1.73-2.58,2.79-4.56,4.76-.18.18-3.57,2.81-3.77,2.94-1.08.72-3.9-.6-3.23,2.09l8.44,3.24.4-1.84,1.6-.57c1.85,4.34,1.71,2.4,3.95,2.07,1.36-.2,4.19-.6,5.34-.56,1.55.06,1.22,1.62,1.58,1.71,2.39.55,1.83-1.42,2.39-1.49,2.37-.31,12.94.48,13.73,2.32,13.13-2.16,28.67-.77,41.79-2.49,3.84-.5,3.72.23,5.59.07,3.03-.26,9.08-1.95,12.93-2.31.71-.07,1.61.63,2.4.67-.75-2.58,1.16-2.23,1.6,0,4.52-3.84,10.41-2.46,15.28-4.04,1.51-.49,2.17-1.71,3.23-2.02,2-.58,8.84.98,8.46-1.97l1.59-.02.81,2.41c.64-2.72,3.92-3.62,6.53-4.35,3.18-.9,10.78-.72,13.06-1.53,2.48-.88,6.72-3.26,9.44-4.1,5.6-1.75,12.04-2.12,16.43-6.09l.41,1.59h1.19c1.33-3.72,4.07-2.08,6.43-2.83,1.56-.49,5.07-1.62,6.32-2.13s1.14-1.92,1.44-2.15c.19-.15,3.55,1.36,4.72.68l-.02-2.02c2.3-.45,6.23-.68,8.26-1.38,2.19-.76,5.44-3.05,7.08-4.2.62-.43,6.01-.86,7.2-2.04v4.82c-4.1-1.78-9.02,2.36-12.7,3.77-1.61.62-5.76.99-6.23,1.22-.96.46.78,2.8-2.78-.16l-1.57,3.62c-3.8-1.5-3.88.86-4.68,1.16-1.38.51-7.51,3.01-7.93,3.06-1.9.21-4.25-2.09-3.11,1.01-2.04,2.11-.36-.73-2.02-.8v2.42c-4.62-1.32-9.46,1.59-13.66,2.82-1.37.4-3.69-.19-5.02.4-.93.42-.86,1.76-1.99,2.23-4.46,1.9-11.68,3.41-16.17,4.93-3.27,1.1-7.33.87-10.64.07-.15.66.23,1.62-.04,2.36-2.63.33-5.09,1.11-7.69,1.59-10.7,1.98-20.89,4.08-32.21,5.41-1,.12-1.76-.44-2.7-.52l-.43,2.44c-2.77-.88-5.38-.39-8.07-.42-4.03-.06-9.06-1.23-12.82,1.23l-.74-1.56c-3.96,1.39-6.76,1.83-10.5-.12-.79,3.02-3.19,1-5.66,1.1s-7.49-.1-8.03,2.16l-2.84-3.21c-2.52,3.45-6.59-.91-8.46-.74-1.05.09-.56,3.19-2.79,2.33l.4-1.61-13.58.6c-3.64-3.35-7.36-.95-11.37-1.3-1.52-.14-1.06-1.45-1.58-1.55-.31-.06-5.99-.16-6.29-.05-1.2.42-1.34,2.1-2.21,2.67-8,5.24-13.84,11.43-21.79,16.05-.7.41-1.5.54-2.31.49l.82,2.4c-2.55-.9-2.64,1.98-3.73,2.36s-2.38-.77-2.71-.75c.1,1.24.22,2.1.8,3.21-3.18-.67-3.18.73-4.82,2.83l1.6,1.19-4.82-.79,1.6,2c-2.32.45-2.28,3.27-2.89,3.7-1.03.72-2.73-.26-3.32.09-2.82,1.66-1.89,4.18-2.16,4.64-1.17,1.95-4.25,1.5-6.09.81,1.03,7.25-5.91,7.54-8.06,12.86-1.02.29-.98-3.38-2.01-.81-.88,2.17.13,4.35-3.62,4.04l.82,2.4c-3.17-.83-3.12,1.27-4.32,2.17-3.4,2.55-1.38,1.89-3.15,4.06-.3.37-7.25,5.63-7.82,5.03l.81-4.83c3.67,2.14,3.81-2.92,5.05-4.59.97-1.32,5.45-2.19,5.49-5.79l3.12.74c0-.52-.15-1.3.1-1.7,1.25-2.03,10.32-11.92,12.56-13.59,1.83-1.36,3.16.46,2.22-3.21h2.78s.84-2.88.84-2.88c2.51.32,3.3-.42,4.85-2.35l-2.4.41c-.52-3.38,3.96-2.76,4.65-3.39.19-.17,2.7-2.75,3.2-3.28.38-.4,0-1.67.31-2,.17-.17,4.02-.94,4.69-.99-.08-1.06.05-2.16,0-3.22l3.21.8-.81-2.4c3.21,1,5.03-4.25,5.8-4.67.99-.53,2.48.2,3.66-.37,2.55-1.22,1.95-6.7,6.63-5.43l-.81-2.4,4.84-.81-.82-2.4,4.02-1.62-8.23-4.56-1.41.56v-3.22s8.42,2.45,8.42,2.45l1.22-1.65.43,2.46,7.63-1.22c1.23-2.67,3.99-6.9,7.23-6.07l-.81-1.6c3.92,1.13,6.42-5.37,8.87-6.9.84-.53,2.3.56,2.38.46.1-.11-.17-1.36.3-2.1,1.32-2.07,4.52-2.36,5.63-3.48,2.97-2.99,4.57-3.66,8.17-6.47s6.95-9.11,12.45-6.45v-5.62s2.42,1.61,2.42,1.61l.39-2.4c3.96,2.24,2.11-.39,3.63-2.01.62-.67,11.1-5.98,12.08-6.05Z"/>
  <path class="cls-1" d="M686.1,382.72c.97-4.54,6.12-.48,4.82.8-2.46,1.35-3.79-.61-4.82-.8-.15.68.21,1.62-.04,2.37-1.98-.21-3.46.84-5.2,1.27-2.85.71-1.91.61-3.95,1.34s-6.46.2-8.84,1.52l-1.28-1.67.8,3.2c-2.53,1.04-6.12.31-8.31.82-2.85.67-7.82,2.39-11.53,2.95-.97.15-1.76-.51-2.69-.55l-.06,2.31c-3.62-.5-6.13,1.75-9.04,2.68-1.06.34-5.75.82-6.21,1.12-.58.38-.51,1.73-1.34,1.97-2.04.57-4.1-.9-5.41-.85-.24,0-2.27,2.38-3.65,2.72-1.53.37-4.25-.25-5.9.5-1.02.46-.51,2.14-1.31,2.85-.44.39-4.47-.43-5.71-.04-3.36,1.04-9.09,4.11-13.04,5.51-.9.32-2.13-.33-2.19-.24-.4.7.66,1.86-1,2.65-2.72,1.3-5.17-.04-7.89-.26,2.62,4.87-4.53,2.81-5.43,3.37-.61.38-1.41,2.85-3.39,3.38-1.39.37-4.06-.19-6.29.78-.34.15-.47,1.44-1.33,1.84-.34.16-5.65.38-6.08-.94-.28-2.23,1.88-.43,3.69-1.12,1.36-.52,2.02-2.37,2.5-2.47,6.47-1.29,6.08-2.19,11.59-4.35,9.4-3.69,17.85-5.93,27.31-8.89,2.14-.67,3.15-3.09,4.77-3.96,2.43-1.31,12.67-3.14,16.6-4.41,6.26-2.02,13.35-3.49,20.13-5.61,1.1-.34,1.11-1.43,1.49-1.55,1.66-.51,6.45-.99,8.35-1.18l.11-1.42,2.4,1.6.39-2.39c2.19,1.83,3.53-.68,5.45-1.11,5.06-1.13,10.87-2.23,15.36-2.91.62-.1.45-1.52,1.03-1.62.39-.06,4.26.62,5.14.79Z"/>
  <path class="cls-1" d="M538.89,535.51l-.93,5.5c-2.03-.43-3.76,1.1-5.11,1.34-.78.14-2.45-.74-2.78-.38-.19.2.31,1.57-.21,2.19-.64.78-5.64,2.25-6.53,2.76-1.06.6-1.24,1.96-1.92,2.32-1,.53-4.79.77-5.49,1.48-1.13,1.16-.86,2.54-1.29,3.11-.17.23-4.85.5-5.66.96-.87.48-.9,1.71-2,2.24-1.57.77-4.18.45-5.36.96-.98.43-.09,1.96-1.03,2.48-1,.54-3.43.46-5.04,1.25-2.77,1.36-6.51,4.19-9.33,5.84l-2.01-1.5c.08,3.8-6.18,5.56-9.66,4.02v3.22c-2.87-.9-2.95,1.18-4.32,1.74-6.35,2.61-14.61,4.34-20.43,6.59-.3.12-2.96,2.91-3.18,2.95-1.54.27-2.81-.87-3.81-.87-.61,0,.01,2.52-2.05,1.65-1.86-3.38,2.6-4.2,5.16-4.97,2.08-.63,4.83.87,3.81-2.14,1.63-1.33,5.16-.11,5.4-.25.28-.17.21-1.75,1.44-2.15,6.44-2.15,13.41-4.75,20.41-7.12,1.61-.54,5.89-4.88,7.86-5.79.96-.45,2.65-.33,3.75-.91l1.24,1.64c-.08-2.05,2.1-2.21,3.43-3.19.69-.51.91-1.75,1.4-2.04,1.66-.99,3.31.47,4.07.04.91-.51,1.16-2.92,1.95-3.68.21-.2,4.52-2.74,4.78-2.86,2.92-1.34,6.41-2.38,8.5.47-2.5-5.37,6.06-5.69,8.46-9.65l.4,1.6h1.6c-.42-4.76,3.67-2.78,5.14-3.41,1.13-.49,1.36-2.01,2.7-2.83.99-.6,5.99-3.29,6.65-2.59Z"/>
  <path class="cls-1" d="M135.86,453.49c-.17,5.5-6.99,9.33-3.22,15.25-5.07.68-3.59,8.9-5.23,11.24-1.09,1.56-2.88,1.21-2.8,2.44l1.61,1.12c-1.69,3.41-.95,8.01-1.64,11.19-.08.39-1.66.7-2.13,3.59-.3,1.89.62,7.17.39,7.84-.16.44-1.46.32-1.48.84-.09,2.06,1.61,5.52.82,8.66-.19.77-2.79.09-.75,3.31l-1.61.78c.09,1.32,2.41,4.94,2.29,5.58-.18.94-1.97,1.58-2.08,2.52-.03.22,1,4.01,1.08,4.21.44,1.07,1.8.97,1.78,1.36-.2,3.74-.93,7.31-.78,11.33.06,1.71,2.38.8,1.71,3.21-.2.72-1.99-.14-1.63,1.19l2.46.52c.56,1.57.34,4,.92,5.38.5,1.18,1.73,1.13,2.01,1.5.83,1.1,3.7,11.48,5.52,14.25s6.11,3.75,5.18,8.91l2.39-.82c.19,4.47,5.6,6.15,5.65,9.66l3.21-1.61c-.66,4.72,1.89,3.58,3.62,4.81,2.51,1.79,5.43,5.36,7.72,6.78,1.35.83,5.91,1.94,6.21,2.29.39.46-.04,1.87.21,2.1.49.45,2.36-.14,3.38.13.32.09,3.71,2.98,5.39,3.63,2.98,1.17,4.77-1.14,4.86,4.38l.8-2.41h2.41s0,4.81,0,4.81c-1.28.1-.33-1.19-1.9-1.76s-4.15-.02-4.56-.26c-.84-.49-1.28-2.74-2.38-3.26s-2.05.51-2.74.45c-.33-.03-3.83-2.21-5.32-2.83-3.31-1.37-2.95.03-5.22-4.37l-2.82,1.59c1.82-4.89-5.73-2.93-4.16-6.29-3.91-1.14-5.97-3.59-8.82-6.11-1.15-1.02-2.92.63-2.43-3.6l-2.14-.24-.23-2.14-3.15-.12.81-2.4c-4.42-.15-2.51-2.14-3.43-3.82-.21-.39-1.5-.72-2.07-1.53-1.68-2.37-3.19-4.84-4.96-7.15l1.59-1.99c-6.59.09-1.9-9.8-8.03-9.67l1.63-1.99c-.3-.96-1.02-1.66-1.32-2.62-.56-1.81-.85-5.34-1.3-6.85-.49-1.65-4.44-4.55-.63-5.82l-2.48-1.76c-.03-2.31,1.28-11.13.82-12.62-.19-.63-1.58-.51-1.55-.87l2.35-6.52-1.61-.85v-6.23s1.65-.87,1.65-.87c-.87-.97-1.84-4.74-1.33-5.72.57-1.09,1.91-1,2.09-1.24.16-.22-1.2-2.36-1.21-3.54-.01-3.28,3.79-4.27-.35-7.63,2.84.53,2.25-.86,3.18-2.88l-1.48-1.45c2.61-5.55,5.19-11.74,6.73-17.32.49-1.78.23-4.52.55-5.9.56-2.42,5.32-7.01,4.25-11.12l3.67-.75Z"/>
  <path class="cls-1" d="M627.38,487.25c-4.3-1.11-2.92,3.83-7.24,1.62l.81,1.59-5.3,1.58.47,2.45-3.21-.81-.77,2.86-1.64-.44.8,2.41-3.58-.05-.56,2.3-6.34,1.35.02,2.03-3.21-.8-.04,3.19c-3.85-.17-4.58,3.24-8.81,1.65l1.59,2.81-13.49,6.24c.22,4.26-2.15.48-3.38,1.4-.21.16-.23,2.51-.98,3.05-1.63,1.17-6.5-.61-5.46,3.38l-4.02-.8.71,1.48c-.4.66-4.86,2.11-5.79,2.71-2.6,1.69-5.59,6.55-8.59,3.03l-.07,2.34c-1.76-1.38-8.47,5.33-8.78,4.9v-5.63c.97.41,2.47.52,3.38.01,1.82-1.01,6.71-5.96,7.23-6.23.69-.35,6.49-1.92,8.07-2.69,1.46-.71,2.44-3.39,6.2-2.45l.06-2.32c4.9,2.18,4.49-1.97,5.61-2.8.72-.54,2.21-.34,3.15-.89,8.04-4.68,14.76-11.65,24.18-13.23l.13-3.06,4.79-.47c.26-3.54,3.82-3.8,6.62-5.28.99-.52-.28-2.33,2.98-.8l-.8-2.4c5.63,1.34,9.25-9.94,15.28-3.23Z"/>
  <path class="cls-1" d="M847.06,12.77l2.35.04-1.6-2.4c4.44-1.39,9.6,1.81,13.26,1.66,2.81-.12,3.67-2.07,5.03-2.37,1.95-.43,2.59,2.49,5.43-.11l-.39,2.42c1.77-1.19,2.66.23,4.08.4,2.04.24,4.48-1.11,3.97,1.2h.78c1.26-4.74,8.4-.07,11.03.5,2.78.6,6.93-.24,9.37.32,3.89.9,12.89,5.75,18.46,8.22,4.71,2.09,6.61,4.27,11.09,7.4,2.22,1.55,5,1.91,7.07,4.99,1.6,2.38-.11,4.34-1.46,3.47-.22-.14-.85-3.2-4.06-2.38l1.61-2c-1.47-1.82-2.97-.2-5.03-1.2-2.75-1.34-2.55-6.61-8.64-4.03l2.41-2.4-2.26-.63-.55,1.42c-2.46-1.64-6.48-4.31-9.06-5.42-1.28-.55-8.28-3.39-8.77-3.44-1.62-.18-4.85,2.05-5.11-1.58l-.8,1.6-2.4-1.61-.41,1.6c-2.26-3.83-5.03-1.68-7.77-2.06-5.66-.78-10.46-2.66-16.37-1.15l.4-1.61c-1.4-.46-1.8,1.08-2.79,1.24-1.31.22-10.93-1.55-13.74-1.69-2.45-.12-3.43-.04-6.45-.32-1.62-.15-4.2.76-5.97.75l2.41-1.61-.81-2.4c3.15-.12,5.77-.75,5.69,3.16Z"/>
  <path class="cls-1" d="M526.02,437.4c-.05-.63-.53-1.35-.6-2.03l.57-.79c1.64-1.2,3.84-.27,5.41-.99,1.15-.53,1.81-1.78,2.7-2.21,1.74-.85,4.36.51,4.01-2.02l3.2,1.6v-2.42c6.19,2.54,9.31-7.62,12.87-.39l-2.29,1.12-2.52-3.13.8,3.21-4.1.38.02,1.97c-4.26,1.56-8.83,2.05-13.01,3.5-2.93,1.02-2.2,3.22-7.05,2.2.04.53-.02,1.07,0,1.6h-3.22s.81,2.41.81,2.41c-1.91.87-4.33-.04-6.09.64-2.56.98-1.19,1.44-6.22,2.61-1.66.38-5.94,4.03-7.37,4.83-5.64,3.18-10.26,2.79-16,6.37-.47.29-.58,1.08-.54,1.63l-1.3-1.61c-4.66-.37-4.72,3.33-6.11,4.64s-5.51.08-5.47,3.4l-1.99-1.6c-1.81,3.17-4.02,4.52-7.65,3.21l.8,3.21-7.24-.79c1.36,2.59-.97,1.8-2.11,2.72-4.31,3.49-8.84,4.43-14.15,7-.61.3-.63,1.4-1.19,1.52-1.21.26-3.73-.33-4.2.13-.24.24.18,1.65-.21,2.1-.23.26-3.41,1.05-4.49,1.57-.91.45-.94,1.71-1.55,1.83-2.95.61-5.47-1.24-6.88,3.05-1.4.56-6.6,1.98-7.38,2.51-.88.59-.29,2.32-.46,2.5-.16.17-1.85-.74-3.16-.4-2.73.71-6.66,3.07-8.61,5.17l-2.71-1.56-.84,4.82c-3.49-1.89-4.96,1.82-6.34,2.08-1.13.21-3.14-.63-3.28-.48s.27,1.55-.17,2.19-3.02,1.15-4.07,1.81c-.71.45-.86,1.7-1.41,2.05-1.21.76-2.59-.29-3.8.12-1.03.35-1.38,2.05-2.81,2.88-2.75,1.59-4.23-.2-6.78,3.33-.42.59-.13,1.78-.34,1.98-.62.59-3.67-.21-4.99.11-.49.12-5.66,5.51-7.79,6.15-1.59.48-3.12-.64-3.22-.51-.19.23-1.05,4.16-2.84,4.84l-2.78-1.61c.44,3.48-3.49,3.1-5.95,4.93-1.17.87-.87,2.33-2.09,2.31l-.82-4.01c2.39.5,6.05-4.31,7.81-4.72,2.78-.65,2.44,2.91,4.58-2.15.17-.41-.38-1.14-.33-1.17.54-.26,2.36.25,3.45-.04.35-.09,3.65-3.49,3.99-3.69,5.45-3.24,10.63-5.62,15.96-8.71.91-.53,2.5-.19,2.99-.61s.03-2.62,1.46-2.95l3.53-.09.79,3.21c-1.33-6.3,3.77-7.3,8.85-7.24l-.81-2.4c1.76-.44,3.74-.7,5.39-1.46,2.06-.95,4.4-3.44,5.71-4.11,1.13-.57,9.33-3.1,9.7-3.46.39-.38-.27-1.79.64-2.3.76-.42,2.55.04,3.17-.25.84-.39.8-1.64,1.78-2.09,1.34-.61,3.53-.27,4.98-.02l.05-2.32,3.94-.17.47-2.38,4.82.81.8-.76c-.85-2.96,4.98-2.82,6.43-5.62,2.25-.68.2,3.26,2.39,2.4.78-.3,1.46-1.48,1.21-2.4l-1.6-.8,2.74-.88,1.27,1.66-.79-3.21c3.07,1.4,6.62-1.2,8.23-3.74l11.89-4.31-.81-2.4c1.42-.44,1.78,1.06,2.79,1.25,2.07.39,7.03-5.76,10.78-4.62l.54-2.32c2.05-.38,4.14,1.32,4.79-1.56l.42,1.59,1.14-.02c1.13-1.18,2.77-1.51,4.07-2.37,4.56-3.03,4.05-4.04,9.89-6.2,4.52-1.67,8.03-2.04,12.38-4.34.66-.35.7-1.53,1.13-1.53.86,0,1.93.92,3.02.85.4-.03,1.77-2.57,2.39-2.99.66-.44,1.88-.08,2.71-.51.37-.19.51-1.64,1.8-1.82s1.83,1.13,2.47,1.26Z"/>
  <path class="cls-1" d="M677.25,446.24v3.22s.81-3.22.81-3.22h2.41c1.86,1.8-5.92,6.61-7.48,7.68-.42.29-1.61-.26-2.22.66-.85,1.29-.58,3.35-.85,3.63-.23.23-5.21.79-6.26,1.79l.73,1.5c-2.79-.34-4.35,2.82-6.48,3.61-3.2,1.19-4.39-1.17-4.1,3.57-2.31-.33-4.84,3.69-6.67,4.26-1.27.39-3.48-.26-3.61-.13-.2.21-.08,1.92-1.24,3.22-2.49,2.8-7.81,1.83-7.69,6.41l-2.29-.75c-1.04,3.23-4.3,4.02-7.36,3.15-.08-3.61,3.6-2.72,5.57-3.67,3.38-1.64,5.02-5.3,7.57-7.31,1.15-.91,6.49-3.95,7.77-3.49l-.8-2.4c2.38.94,2.72-1.97,3.58-2.14.64-.12,1.71.77,2.86.19,1.66-.84,1.13-4.3,5.64-2.87v-3.23c5.1,1.05,3.79-1.63,5.04-2.98.43-.46,2.18-.61,3.11-1.3,2.54-1.86,4.41-4.23,7.93-3.76l-.43-2.41c.86-1.52,2.7.2,2.83,0,.54-.76-1.23-4,1.61-3.23Z"/>
  <path class="cls-1" d="M472.41,118.62c.58.41,1.19.7,1.73,1.15,1.23-3.62,4.52-2.09,7.22-.77.76-1.62.75-1.94,2.82-1.64v2.41c-.26.27-6.38.21-7.62.42-1.13.2-1.83,1.4-2.73,1.59-2.05.45-2.95-1.88-4.53,2.01l-1.19-1.6c-.32,4.43-4.54,2.8-5.97,3.39-.68.28-2.06,1.13-3.64,1.82s-8.53,6.53-9.47,6.75c-2.2.51-2.14-2.57-3.17,1.74l-4.3-.05c.76,4.16-2.61,1.96-4,2.84-1.67,1.07-4.38,3.21-6.23,4.4-3.26.1-4.99,5.29-5.5-.01.83-1.63,2.71-1.15,3.83-1.68,1.63-.78,2.34-.77,3.01-1.09,5.63-2.7,12.69-11.37,19.34-10.07-.85-3.21,1.86-2.02,2.81-3.24.45-.58.21-1.99.52-2.27.49-.44,2.36.1,3.39-.24s1.06-1.82,1.51-2.09c.84-.52,2.91-.13,4.45-.8,2.19-.94,2.72-3.98,6.22-1.8l.42-2.42c1.21-.33.63.94,1.08,1.26Z"/>
  <path class="cls-1" d="M740.8,371.46c-3.37-.97-8.76,3.05-10.9,3.22-2.62.21-2.84-2.41-4.83,1.53l-8.4-.71,1.6,2.4-5.11-.86c-1.86,3.53-2.42,3.02-6.15,2.47l.8-2.4h-2.41c1.82,3.63-5.15,5.25-7.55,4.77-.38-.08-4.25-5.32-3.72,1.65l-3.21-2.82,5.29-1.93c6.86-1.14,14.74-4.92,22.28-5.13l12.21-3.03,2.05,1.66v-3.22c2.83,1.46,7.77-2.05,8.04,2.41Z"/>
  <path class="cls-1" d="M176.08,987.42c.29-1.09-.18-2.7,1.31-3.15,5.04,1.25,9.76-1.62,14.34-3.35l.83,1.67c7-3.79,16.94-3.09,24.38-6.17,1.53-.63.03-2.74,3.72-1l.84-1.56c3.06,1.8,4.54-2.12,7.65-2.96,1.95-.53,3.67-.03,5.1-.36,1.1-.25.95-3.13,2.98-2.42l.79,1.59c-.1-.61,0-1.25.61-1.56,4.16-2.13,9.7-2.83,14.1-4.11.41-.12,1.09-2.71,2.99-.75.99,1.02-3.55,4.09-4.09,4.32-1.97.84-3.49,1.09-5.55.49v2.41c-5.72-1.75-10.87,4.14-16.1,2.43l.81,1.59c-2.83.73-5.77,1.37-8.55,2.31-1.12.38-1.04,1.41-1.74,1.66-2.84,1-6-.46-8.62,1.7l-1.21-1.62-2.42.8.8,2.4c-.82.61-9.08.56-10.82.85-3.61.6-4.02,1.95-7.95,2.34-.59.06-.44,1.47-1.07,1.63-2.46.64-5.68-.53-7.93-.41-1.49.08-2.77,1.5-5.2,1.23-.13.48.33,1.44-.54,1.64l-9.4-.08-.92,1.67-.41-1.61h-1.6s-.14,1.38-.14,1.38c-7.56.15-14.91,1.83-22.31,2.14-4.48.19-7.15-.95-10.13-1.15-.5-.03-.28,1.49-.93,1.64-1.37.33-3.12-.3-4.58,0-.62.13-.62,1.54-.93,1.62-2.35.61-1.78-1.44-2.55-1.61-1.73-.4-4.05.23-5.9-.02l.86-3.18,14.07.42,1.96-1.26.8,3.21,1.63-3.2.79,1.59c1.95.35,1.74-2.05,4.43-2.4l.4,2.41c4.98-2.31,10.35-1.32,15.31-2.02,3.62-.51,16.7-3.99,18.67-2.8,1.05.63,0,1.44,1.41,1.59Z"/>
  <path class="cls-1" d="M940.5,39.98c1.38,1.38,4.8.58,3.83,5.02l2.01-.69c2.19,1.97,3.43,2.58,4.99,5.34,1.38,2.43,3.18,7.45,4.71,9.81.36.55,1.26.72,1.88.93.14,1.7-3.28,3.91-4.37,2.31.26-4.19-2.78-7.35-4.48-11.18-2.77,1.87-5.92-3.71-5.55-6.52l-2.34.76c-1.71-3.7-4.43-4.05-2.47-8.79,1.44-.06.9,2.13,1.79,3.02Z"/>
  <path class="cls-1" d="M382.82,171.24v2.41s-2.41-.8-2.41-.8l.81,3.21c-.86.21-4.6.11-4.88.4-.76.79-.52,2.38-.89,2.69-.76.64-6.68,2.57-8.93,4.91-1.66,1.73-.08,4.35-4.6,2.44.83,4.52-5.53,3.15-4.06,6.4-4.58-.72-5.06,4.9-9.63,4.07l.59,1.43-5.81,4.99-.8-1.6c-1.89,1.64-1.17,4.2-4.12,4.29l-13.98,10.18c-.62-3.84,2.93-3.82,4.56-5.08s2.46-3.79,5.98-4.16l-.08-2,3.25.48c.85-4.99,4.15-4.18,6.36-5.79,7.58-5.54,13.7-12.23,21.75-17.5.66-.43,2.16,0,2.7-.41.75-.58.78-2.46,2.08-3.78,1.82-1.85,5.59-2.89,7.75-4.35,1.34-.9.7-3.48,4.38-2.42Z"/>
  <path class="cls-1" d="M159.78,404.21c-.07.19-2.44,2.4-2.71,2.93-1.53,3.05-5.09,10.09-5.27,12.99-.02.3-2.79,2.77-2.36,5.11l-3.92.1c-.69-.67,2.4-7.49,3.16-8.29.83-.87,2.13-.57,2.85-1.31.48-.49,4.39-10.87,4.96-12.09.73-1.58,1.83-3,1.91-4.84,1.26.25,1.62,4.73,1.38,5.4Z"/>
  <path class="cls-1" d="M280.66,252.45l2.42-4.83,2.4.81v-3.22s4.02.81,4.02.81l-6.47,6.01c-.69.68-1.75.24-2.37.41.07,2.42-2.51.73-.79,4.01-3.04.8-10.01,6.17-12.11,8.49-1.15,1.27.41,2.65-1.19,3.57-2.12,1.21.74-2.87-2-1.61-.05.99.29,2.09-.2,3.02-.8,1.52-14.95,14.25-17.28,16.51-.7.68-.57,2.11-1.23,2.78-.76.78-4.89,2.08-5.33,2.78-.27.44.56,1.56.26,2.27-.53,1.24-3.44,2.31-2.79,4.81l-2.4-.82c.08,4.29-1.84,3.33-3.18,4.47-1.08.91-.57,3.08-2.87,3.59l-1.99-1.63c.84-2.13,2.03-2.31,4.01-1.59l.13-3.95,2.13-.23.25-2.13c4.54.84,3.2-3.22,5.5-5.4,1.33-1.27,3.16-1.04,3.27-1.16.32-.35-.85-1.72-.67-2.29.11-.35,4.75-3.73,5.81-4.65,3.6-3.11,6.49-7.28,10.15-11.01.29-.3,1.35.24,1.46.1,1.19-1.56-.35-3.21,4.1-3.1-1.1-4.68,2.36-3.65,3.34-7.14l2.25.72c.55-.36,2.87-5.55,3.52-6.19,2-1.96,5.27-3.54,7.84-4.23Z"/>
  <path class="cls-1" d="M425.39,146.24c-3.39,2.55-7.08,4.45-10.79,6.5-.75.41-1.29,1.71-1.98,1.98-.78.31-2.21-.62-2.42-.36s.51,1.53-.58,2.41c-1.69,1.37-4.65,1.42-6.67.8-1.96-1.97,6.02-3.12,6.3-3.39.39-.37-.18-1.75.6-2.33s2.69.25,3.5-.31c1.18-.82,4.58-4.84,5.89-5.48,1.45-.7,2.44.04,3.81.25v-2.42s2.35,2.35,2.35,2.35Z"/>
  <path class="cls-1" d="M191.37,353.77c.35-.57-.25-3.73,0-4.83l1.97.77,1.17-1.15c-2.37-3.5,2.12-2.53,1.73-6.04l1.42.63c.37-1.27,1.48-2.08,2.09-3.16,1.08-1.9,3.2-6.12,4.68-7.7.81-.87,2.6-.66,2.92-1.18.88-1.39-1.29-3.13,3.43-4.25-.98-3.69,5.59-6.32,6.86-8.76.64-1.23.31-2.82,1.02-4.02s5.29-3.9,5.9-6l3-.18-.56,2.42c-4.12.84-4.82,3.09-6.29,6.42l-1.99-1.6.81,4.01c-4.07-.33-2.26,2.01-3.27,3.5-.71,1.05-4.25,3.36-4.56,3.97-.47.93.06,2.43-.35,2.89-.31.35-1.82-.31-2.33.6s-.18,2.86-1.02,4.07c-.63.91-3.43,1.85-4.3,2.93-1.6,1.97-4.83,8.44-5.91,10.98l-2.4-2.4-.36,4.88-2.88.75.72,2.34c-.44.25-1.39-.06-1.52.07-.18.19-2.19,2.45-2.29,2.6-.4.62,1.46,2.02-.52,3.01l-2.02-3.99c.8.07,4.7-1.4,4.83-1.62Z"/>
  <path class="cls-1" d="M307.06,232.21c-.51.41-1.94-.1-2.83.38-1.33.72-8.67,8.82-10.63,10.47-1.12.94-2,.53-3.28.54l5.1-5.4,2.14-.24-.8-3.21,3.13.74c.29-4.5,5.02-4.46,6.35-5.74,1.18-1.14-.45-2.23,2.75-3.27,1.19-.39,1.61-1.31,1.44.62-1.96.56-3.12,4.91-3.36,5.1Z"/>
  <path class="cls-1" d="M172.06,380.31c.1-1.85,1.58-3.47,0-5.62,1.02-.01,2.04.26,3.02-.22.28-.14,3.77-4.45,3.95-4.8.54-1.02-1.26-4.02,4.3-3.84v-1.59s-1.62-.39-1.62-.39c.39-2.71,3.85-2.65,4.04-2.84.3-.3-1.9-3.56.79-4.01,1.32,7.26-5.24,10.37-8.34,15.26-.16.25-2.01,3.93-2.5,4.88-.52,1-.26,2.93-.45,3.14-.27.29-2.36-.06-3.18.04-.03.5,1.43,1.71.45,3.21-1.08,1.66-5.08,2.62-4.65,7.12-3.83.13-1.41.49-1.54,2.15-.42,5.21-5.8,4.02-4.32,1.19.78-1.5,3.4-2.82,2.83-5.62l2.4,1.6c-3.18-5.64,5.1-4.56,2.42-9.64.79-.08,1.63.09,2.41,0Z"/>
  <path class="cls-1" d="M197.8,619.13l-8.21-3.28-3.85-3.54c1.43-2,1.53-.85,2.82-.44,5.23,1.65,9.62.15,9.23,7.26Z"/>
  <path class="cls-1" d="M269.72,959.6c-1.96,1.56-2.32,4.02-5.13,1.3.29,2.2-2.09,1.54-3.82,2.21-.27.11-4.48,3.43-4.23.59.02-.18,2.35-2.58,2.52-2.64.45-.16,1.53.71,2.49.49,1.19-.27,2.11-1.88,3.6-2.13.95-.16,2.23.7,2.53.53s1.72-3.2,4.54-3.07c1.5,1.9-1.7,2.08-2.51,2.72Z"/>
  <path class="cls-1" d="M143.9,434.19c.76.72-3.33,6.18-3.21,7.48-.52.84-2.29.05-1.61,2.16l1.6.8-4.01,1.61-.65-2.24c2.75-.61,1.65-2.88,1.44-4.99h3.23s0-4.83,0-4.83h3.21Z"/>
  <path class="cls-1" d="M387.65,167.22c.63-.33,5.38-4.08,7.21-5.3.53-.35.67-1.49,1-1.71.3-.2,6.07-.86,7.07-1.03l-3.4,3.82c-4.72,1.02-7.15-1.09-7.94,4.93l-3.94-.72.8,3.21h-4.02c.65-4.36,1.96-2.56,3.22-3.21Z"/>
  <path class="cls-1" d="M147.93,426.15c.1.07-.87,2.07-1.06,2.21-1.59,1.23-2.96-.9-2.16,5.02h-2.41s1.69-7.16,1.69-7.16l3.94-.07Z"/>
  <path class="cls-1" d="M561.41,425.35c-.24,2.1-3.71.1-4.48.07-.16,0-1.3,3.05-2.75,1.53-1.28-1.34,1.88-3.72,2.98-3.9,1.31-.21,2.59,2.45,4.25,2.3Z"/>
  <polygon class="cls-1" points="138.27 447.86 135.86 449.47 137.47 452.68 132.65 452.67 135 450.63 134.26 447.86 138.27 447.86"/>
  <path class="cls-1" d="M113.21,990.77l.93,3.08c-2.38-1.18-4.66-1.06-7.23-1.61.93-2.34,4.34-1.7,6.3-1.47Z"/>
  <path class="cls-1" d="M317.67,222.69l-3.21-1.59c3.88-.49,5.09-7.35,8.02-2.83l-4.51,1.98-.3,2.44Z"/>
  <path class="cls-1" d="M316.05,328.05c1.08,3.15-1.67,3.42-2.15,4.26-.59,1.02-.51,2.48-1.14,3.28-1.05,1.33-4.73,3.75-5.35,4.72-.96,1.51,1.26,3.77-2.61,3-.32-1.32,1.02-.41,1.4-1.19,1.38-2.84,1.91-8.77,6.64-7.65l-.8-3.6,3.2-.42-.79-2.02,1.59-.38Z"/>
  <path class="cls-1" d="M316.05,223.52c.22,1.3-1.13.59-2.15,1.09-.68.33.25,1.79-3.47.5l.42-1.61,1.99.83v-2.43s3.22,1.62,3.22,1.62Z"/>
  <path class="cls-1" d="M321.69,324.02l-2.34-.06-.87-3.15,2.43.38c1.03.69.84,1.66.78,2.83Z"/>
  <path class="cls-1" d="M163.21,398.01l-.87,3.15-2.34.06c-.36-2.43.7-3.58,3.21-3.2Z"/>
  <polygon class="cls-1" points="966.06 809.71 962.04 810.52 962.03 808.92 966.04 807.3 966.06 809.71"/>
  <path class="cls-1" d="M303.99,344.94c.34,1.33-1.37.33-1.63,1.33-.27,1.06.73,2.86-.78,2.67l2.4-4.01Z"/>
  <path class="cls-1" d="M285.49,954.46v.79s-4.82,0-4.82,0v-.79c1.68-.62,3.11-.28,4.82,0Z"/>
  <polygon class="cls-1" points="279.05 955.26 279.05 956.86 275.04 956.86 275.04 956.07 279.05 955.26"/>
</svg>